<ttFont>
<head>
    <!-- Most of this table will be recalculated by the compiler -->
    <tableVersion value="1.0"/>
    <fontRevision value="1.0"/>
    <checkSumAdjustment value="0x692beae2"/>
    <magicNumber value="0x5f0f3cf5"/>
    <flags value="00000000 00000011"/>
    <unitsPerEm value="2048"/>
    <created value="Thu Aug 15 19:01:55 2019"/>
    <modified value="Fri Aug 16 02:19:10 2019"/>
    <xMin value="-469"/>
    <yMin value="-514"/>
    <xMax value="3465"/>
    <yMax value="1976"/>
<macStyle value="00000000 00000000"/>
    <lowestRecPPEM value="3"/>
    <fontDirectionHint value="2"/>
    <indexToLocFormat value="0"/>
    <glyphDataFormat value="0"/>
  </head>
          <CharString index="0">
            -1056 vlineto
            -89 45 callsubr
            return
          </CharString>
          <CharString index="1">
            -633 98 callsubr
            return
          </CharString>
          <CharString index="2">
            141 -17 18 -20 -89 vvcurveto
            return
          </CharString>
          <CharString index="3">
            rmoveto
            70 callsubr
            return
          </CharString>
          <CharString index="4">
            462 -353 286 -387 -449 -292 -332 -418 vhcurveto
            return
          </CharString>
          <CharString index="5">
            294 18 rmoveto
            356 127 279 return
          </CharString>
          <CharString index="6">
            307 -223 208 -298 -304 -228 -215 -309 return
          </CharString>
          <CharString index="7">
            500 68 vlineto
            -108 14 -14 15 62 vvcurveto
            return
          </CharString>
          <CharString index="8">
            141 17 vhcurveto
            68 -582 -68 vlineto
            return
          </CharString>
          <CharString index="9">
            308 121 callsubr
            endchar
          </CharString>
          <CharString index="10">
            rmoveto
            -12 callsubr
            56 callsubr
            endchar
          </CharString>
          <CharString index="11">
            rmoveto
            70 56 50 67 67 -56 50 -70 -70 return
          </CharString>
          <CharString index="12">
            46 callsubr
            endchar
          </CharString>
          <CharString index="13">
            rmoveto
            304 229 215 309 return
          </CharString>
          <CharString index="14">
            172 callsubr
            endchar
          </CharString>
          <CharString index="15">
            374 44 0 61 -68 18 rlineto
            return
          </CharString>
          <CharString index="16">
            1139 rmoveto
            340 358 rlineto
            11 return
          </CharString>
          <CharString index="17">
            rmoveto
            -36 callsubr
            1139 vlineto
            -29 callsubr
            endchar
          </CharString>
          <CharString index="18">
            70 -18 rlineto
            56 -16 8 -14 -56 vvcurveto
            return
          </CharString>
          <CharString index="19">
            -56 -50 -67 -67 56 -50 70 hvcurveto
            endchar
          </CharString>
          <CharString index="20">
            622 -51 callgsubr
            -494 vlineto
            -62 -15 -15 -106 -14 vhcurveto
            -68 499 68 vlineto
            70 callgsubr
            return
          </CharString>
          <CharString index="21">
            rmoveto
            -318 220 -196 288 return
          </CharString>
          <CharString index="22">
            -50 callsubr
            endchar
          </CharString>
          <CharString index="23">
            66 callsubr
            endchar
          </CharString>
          <CharString index="24">
            54 callsubr
            endchar
          </CharString>
          <CharString index="25">
            -80 callsubr
            69 -18 rlineto
            56 -16 9 -14 -56 vvcurveto
            -495 vlineto
            -211 137 -113 199 159 116 75 100 56 vhcurveto
            -165 vlineto
            return
          </CharString>
          <CharString index="26">
            rmoveto
            -39 callgsubr
            -14 callgsubr
            endchar
          </CharString>
          <CharString index="27">
            rmoveto
            -378 -45 0 -62 return
          </CharString>
          <CharString index="28">
            rmoveto
            -64 -51 -47 -63 -63 51 -49 64 64 return
          </CharString>
          <CharString index="29">
            89 callsubr
            endchar
          </CharString>
          <CharString index="30">
            rmoveto
            1056 vlineto
            89 18 20 return
          </CharString>
          <CharString index="31">
            rmoveto
            -374 -45 0 -62 -89 callsubr
            return
          </CharString>
          <CharString index="32">
            -68 hlineto
            -105 callsubr
            return
          </CharString>
          <CharString index="33">
            -49 callsubr
            -257 vlineto
            -148 -284 rlineto
            return
          </CharString>
          <CharString index="34">
            rmoveto
            329 -541 rlineto
            -433 34 callsubr
            return
          </CharString>
          <CharString index="35">
            -259 vlineto
            -167 -369 rlineto
            return
          </CharString>
          <CharString index="36">
            63 -1 48 -28 -49 vvcurveto
            -51 return
          </CharString>
          <CharString index="37">
            50 48 62 62 -50 48 return
          </CharString>
          <CharString index="38">
            rmoveto
            318 -774 -79 -148 -114 -189 -76 -110 rlinecurve
            -5 210 vlineto
            162 453 91 221 220 538 58 142 23 19 94 15 rlinecurve
            69 -375 -69 vlineto
            127 -13 20 -25 -46 -124 rrcurveto
            -190 -501 -186 504 -44 120 19 26 127 13 rlinecurve
            69 -524 -69 vlineto
            91 -18 25 -22 49 -122 rrcurveto
            endchar
          </CharString>
          <CharString index="39">
            1585 rmoveto
            64 51 48 63 63 -51 48 -64 return
          </CharString>
          <CharString index="40">
            1139 rmoveto
            223 196 219 -196 return
          </CharString>
          <CharString index="41">
            1056 vlineto
            90 21 19 138 17 vhcurveto
            68 return
          </CharString>
          <CharString index="42">
            51 49 63 63 -51 47 -64 hvcurveto
            endchar
          </CharString>
          <CharString index="43">
            609 7 callsubr
            -77 callgsubr
            -4 callgsubr
            endchar
          </CharString>
          <CharString index="44">
            -367 rlineto
            64 hlineto
            43 229 75 44 263 12 56 3 rcurveline
            return
          </CharString>
          <CharString index="45">
            vlineto
            57 -3 263 -12 74 -44 44 -229 rlinecurve
            64 hlineto
            return
          </CharString>
          <CharString index="46">
            432 1009 -76 callsubr
            return
          </CharString>
          <CharString index="47">
            -258 vlineto
            -168 -369 rlineto
            return
          </CharString>
          <CharString index="48">
            -667 98 callsubr
            return
          </CharString>
          <CharString index="49">
            -574 -92 callgsubr
            return
          </CharString>
          <CharString index="50">
            52 hvcurveto
            326 hmoveto
            52 return
          </CharString>
          <CharString index="51">
            26 97 vvcurveto
            1157 return
          </CharString>
          <CharString index="52">
            -40 -34 -46 -46 40 -34 return
          </CharString>
          <CharString index="53">
            -378 -46 0 -61 70 -19 rlineto
            56 -16 8 -13 -57 vvcurveto
            -1113 98 callsubr
            return
          </CharString>
          <CharString index="54">
            -474 -681 473 6 callsubr
            -1056 -89 callgsubr
            return
          </CharString>
          <CharString index="55">
            1139 rmoveto
            86 hlineto
            -161 369 rlineto
            -268 -11 hlineto
            return
          </CharString>
          <CharString index="56">
            574 68 vlineto
            -131 17 -20 18 86 vvcurveto
            return
          </CharString>
          <CharString index="57">
            512 68 vlineto
            -117 15 -17 16 66 vvcurveto
            return
          </CharString>
          <CharString index="58">
            1554 rmoveto
            320 276 rlineto
            8 return
          </CharString>
          <CharString index="59">
            -63 -62 -50 -48 -62 -62 50 -48 62 hvcurveto
            return
          </CharString>
          <CharString index="60">
            rmoveto
            52 -42 callsubr
            -9 hlineto
            -52 return
          </CharString>
          <CharString index="61">
            -64 -51 -48 -63 -63 51 -48 64 hvcurveto
            return
          </CharString>
          <CharString index="62">
            -1157 34 callsubr
            return
          </CharString>
          <CharString index="63">
            -156 0 -210 -283 rlineto
            return
          </CharString>
          <CharString index="64">
            609 68 vlineto
            -152 17 -21 return
          </CharString>
          <CharString index="65">
            40 34 46 46 -40 34 -52 hvcurveto
            return
          </CharString>
          <CharString index="66">
            rmoveto
            555 117 -555 hlineto
            return
          </CharString>
          <CharString index="67">
            -68 vlineto
            -105 callsubr
            return
          </CharString>
          <CharString index="68">
            -51 callsubr
            endchar
          </CharString>
          <CharString index="69">
            1516 rmoveto
            -223 -196 -219 196 return
          </CharString>
          <CharString index="70">
            1302 1444 rmoveto
            -1241 hlineto
            -13 return
          </CharString>
          <CharString index="71">
            -1093 -75 callsubr
            -107 callsubr
            return
          </CharString>
          <CharString index="72">
            202 -146 86 0 -210 283 return
          </CharString>
          <CharString index="73">
            rmoveto
            556 129 -556 hlineto
            endchar
          </CharString>
          <CharString index="74">
            1554 rmoveto
            205 146 return
          </CharString>
          <CharString index="75">
            1500 -31 callgsubr
            return
          </CharString>
          <CharString index="76">
            194 -77 callsubr
            return
          </CharString>
          <CharString index="77">
            rmoveto
            -160 114 -107 151 -34 vhcurveto
            -156 -37 -93 -77 -108 vvcurveto
            -1 -108 103 -69 141 -5 rrcurveto
            -202 -26 -99 -78 -104 vvcurveto
            -149 183 -102 309 304 223 147 213 1 vhcurveto
            178 -139 102 -249 vhcurveto
            -215 hlineto
            -104 -56 32 62 50 38 38 78 22 hvcurveto
            -7 49 35 -4 36 hhcurveto
            235 203 126 210 99 -51 90 -79 42 hvcurveto
            262 -15 0 102 -354 -20 rlineto
            24 -58 -79 17 -86 hhcurveto
            -251 -193 -139 -205 hvcurveto
            243 12 rmoveto
            146 75 101 122 130 78 -101 -157 -147 -81 -100 -116 -121 -87 97 161 vhcurveto
            -71 -897 rmoveto
            85 55 61 104 16 vhcurveto
            216 hlineto
            154 66 -57 -93 -118 -122 -81 -188 -181 -104 78 109 hvcurveto
            endchar
          </CharString>
          <CharString index="78">
            15 410 rlineto
            -64 hlineto
            -54 -271 -71 -40 -285 -11 rrcurveto
            -257 -9 0 621 263 -3 93 -1 25 -38 30 -163 rlinecurve
            60 488 -60 hlineto
            -34 -165 -24 -35 -90 -2 rrcurveto
            -263 -2 0 586 241 -8 249 -10 76 -49 52 -221 rlinecurve
            64 hlineto
            return
          </CharString>
          <CharString index="79">
            -226 133 -78 148 107 111 45 49 46 vhcurveto
            220 callsubr
            16 callgsubr
            return
          </CharString>
          <CharString index="80">
            -298 -191 295 382 375 179 252 308 -7 callgsubr
          </CharString>
          <CharString index="81">
            1500 rmoveto
            554 -92 0 72 -554 172 rlineto
            return
          </CharString>
          <CharString index="82">
            89 0 -233 369 -151 0 -233 -369 rlineto
            return
          </CharString>
          <CharString index="83">
            1194 rmoveto
            75 60 56 74 75 -60 56 -75 return
          </CharString>
          <CharString index="84">
            277 106 277 -106 0 73 -254 182 return
          </CharString>
          <CharString index="85">
            458 1444 -11 callsubr
            return
          </CharString>
          <CharString index="86">
            72 110 110 -87 69 -123 -80 return
          </CharString>
          <CharString index="87">
            rmoveto
            557 129 -557 hlineto
            endchar
          </CharString>
          <CharString index="88">
            1844 rmoveto
            -204 -146 return
          </CharString>
          <CharString index="89">
            -159 -119 -72 -100 -56 vhcurveto
            return
          </CharString>
          <CharString index="90">
            595 7 callsubr
            return
          </CharString>
          <CharString index="91">
            -80 -62 86 callsubr
            return
          </CharString>
          <CharString index="92">
            rmoveto
            992 vlineto
            89 18 20 return
          </CharString>
          <CharString index="93">
            rmoveto
            272 -767 131 0 265 722 253 -722 130 0 277 753 53 143 25 18 91 15 rlinecurve
            69 -352 -69 vlineto
            109 -11 18 -27 -41 -126 rrcurveto
            -168 -497 -162 499 -39 122 16 30 102 10 rlinecurve
            69 -474 -69 vlineto
            101 -11 18 -29 -41 -121 rrcurveto
            -171 -500 -160 499 -40 123 16 27 110 12 rlinecurve
            69 -505 -69 vlineto
            91 -19 31 -21 44 -122 rrcurveto
            endchar
          </CharString>
          <CharString index="94">
            rmoveto
            -462 339 -289 423 204 202 56 81 115 vhcurveto
            388 vlineto
            90 17 17 139 14 vhcurveto
            68 -566 -68 vlineto
            154 -15 16 -16 -89 vvcurveto
            -362 vlineto
            -42 -57 -91 -25 -111 hhcurveto
            -300 -190 295 382 375 178 252 310 213 135 -110 -235 56 hvcurveto
            64 hlineto
            -12 335 rlineto
            61 -85 -166 46 -225 hhcurveto
            -429 -333 -274 -473 hvcurveto
            endchar
          </CharString>
          <CharString index="95">
            -431 1178 -184 0 -425 -1157 -64 -175 -27 -29 -121 -17 rlinecurve
            -68 443 68 vlineto
            -153 21 -19 34 56 161 rrcurveto
            73 212 494 0 79 -226 51 -148 -21 -35 -148 -19 rlinecurve
            -68 return
          </CharString>
          <CharString index="96">
            rmoveto
            -416 -68 hlineto
            129 -20 22 -27 -106 vvcurveto
            -6 -985 -1 -124 -18 -27 -137 -19 rlinecurve
            -68 435 68 vlineto
            -142 16 -19 27 -2 129 rrcurveto
            -18 984 828 -1224 227 0 8 1206 return
          </CharString>
          <CharString index="97">
            rmoveto
            93 68 64 133 -1 hvcurveto
            -75 hlineto
            -52 -27 -22 -41 -26 -27 7 16 -39 vhcurveto
            -30 11 rlineto
            17 -42 -41 11 -46 hhcurveto
            -91 -70 -64 -132 1 hvcurveto
            return
          </CharString>
          <CharString index="98">
            436 1489 rmoveto
            80 callsubr
            -1113 98 callsubr
            -50 callsubr
            return
          </CharString>
          <CharString index="99">
            69 -18 rlineto
            57 -16 8 -14 -56 vvcurveto
            -650 vlineto
            -288 -35 -145 -160 -137 vhcurveto
            41 -57 63 43 rlineto
            return
          </CharString>
          <CharString index="100">
            2 124 17 27 137 19 rlinecurve
            68 -435 -68 vlineto
            142 -16 18 -27 3 -129 18 -935 rcurveline
            return
          </CharString>
          <CharString index="101">
            rmoveto
            -467 342 -285 420 202 191 57 61 84 vhcurveto
            12 336 rlineto
            -32 callgsubr
            return
          </CharString>
          <CharString index="102">
            1139 rmoveto
            204 358 rlineto
            11 -226 vlineto
            -61 -369 rlineto
            return
          </CharString>
          <CharString index="103">
            125 44 callsubr
            -101 68 -121 hvcurveto
            -4 -3 -1 -4 hhcurveto
            return
          </CharString>
          <CharString index="104">
            rmoveto
            -65 -51 -47 -63 -63 51 -49 65 64 -65 callsubr
          </CharString>
          <CharString index="105">
            15 439 rlineto
            -64 hlineto
            -65 -294 -86 -49 -241 -10 return
          </CharString>
          <CharString index="106">
            rmoveto
            172 120 82 128 -8 hvcurveto
            -76 hlineto
            -56 -3 return
          </CharString>
          <CharString index="107">
            1652 485 189 57 callsubr
            return
          </CharString>
          <CharString index="108">
            1202 rmoveto
            71 57 53 70 70 -57 52 -71 return
          </CharString>
          <CharString index="109">
            1613 rmoveto
            540 127 -540 hlineto
            return
          </CharString>
          <CharString index="110">
            1240 rmoveto
            598 143 -598 hlineto
            return
          </CharString>
          <CharString index="111">
            52 -111 -232 -230 -48 -94 -87 hvcurveto
            return
          </CharString>
          <CharString index="112">
            rmoveto
            207 177 204 -177 82 0 return
          </CharString>
          <CharString index="113">
            vlineto
            144 callsubr
            -105 callsubr
            return
          </CharString>
          <CharString index="114">
            68 vlineto
            -151 17 -21 26 97 vvcurveto
            return
          </CharString>
          <CharString index="115">
            52 49 63 63 -51 47 -65 hvcurveto
            endchar
          </CharString>
          <CharString index="116">
            -11 rlineto
            -17 42 41 -12 46 hhcurveto
            return
          </CharString>
          <CharString index="117">
            1676 98 721 rmoveto
            return
          </CharString>
          <CharString index="118">
            -140 17 -19 20 89 vvcurveto
            return
          </CharString>
          <CharString index="119">
            742 175 283 rmoveto
            return
          </CharString>
          <CharString index="120">
            rmoveto
            376 -1178 181 0 352 1124 340 -1124 184 0 370 1158 57 175 32 29 120 16 rlinecurve
            68 -441 -68 vlineto
            151 -21 12 -32 -46 -161 rrcurveto
            -264 -912 -269 926 -44 153 11 27 145 20 rlinecurve
            68 -571 -68 vlineto
            148 -21 13 -26 -44 -156 rrcurveto
            -264 -924 -273 926 -43 149 13 32 148 20 rlinecurve
            68 -595 -68 vlineto
            113 -15 37 -26 51 -159 rrcurveto
            endchar
          </CharString>
          <CharString index="121">
            rmoveto
            516 152 vlineto
            433 -705 rlineto
            344 64 hlineto
            -75 22 -48 47 -132 214 rrcurveto
            -334 545 233 255 149 162 60 44 123 23 rlinecurve
            68 -478 -68 vlineto
            152 -14 11 -42 -105 -128 -335 -405 rcurveline
            -150 467 hlineto
            144 callsubr
            140 -17 19 -20 -89 vvcurveto
            -1056 -89 callgsubr
            -39 callsubr
          </CharString>
          <CharString index="122">
            -199 -7 rcurveline
            1160 vlineto
            96 21 24 -43 callgsubr
            -1056 -89 callgsubr
            vlineto
            return
          </CharString>
          <CharString index="123">
            rmoveto
            95 70 55 113 -1 hvcurveto
            -76 hlineto
            -45 -1 -27 -19 -43 hhcurveto
            -26 -27 7 13 -40 hvcurveto
            -31 10 rlineto
            14 -44 -42 9 -47 hhcurveto
            -94 -71 -54 -113 1 hvcurveto
            return
          </CharString>
          <CharString index="124">
            rmoveto
            172 139 63 91 71 hvcurveto
            154 callsubr
            -314 220 -200 283 vhcurveto
            endchar
          </CharString>
          <CharString index="125">
            20 callsubr
            -320 75 callsubr
            63 61 callsubr
            endchar
          </CharString>
          <CharString index="126">
            1188 1125 hmoveto
            -2 callsubr
            15 callsubr
            return
          </CharString>
          <CharString index="127">
            16 410 rlineto
            -64 hlineto
            -57 -273 -89 -36 -296 -11 rrcurveto
            return
          </CharString>
          <CharString index="128">
            1589 rmoveto
            175 97 125 130 17 -1 16 return
          </CharString>
          <CharString index="129">
            1586 rmoveto
            63 -35 callgsubr
            340 hmoveto
            63 return
          </CharString>
          <CharString index="130">
            1187 rmoveto
            99 80 78 204 -4 hvcurveto
            -78 hlineto
            -99 return
          </CharString>
          <CharString index="131">
            -88 0 233 -369 150 0 233 369 rlineto
            return
          </CharString>
          <CharString index="132">
            rmoveto
            126 hlineto
            887 1444 rlineto
            -127 hlineto
            return
          </CharString>
          <CharString index="133">
            1256 411 1009 -82 callsubr
            return
          </CharString>
          <CharString index="134">
            -90 -52 111 232 229 48 95 87 90 return
          </CharString>
          <CharString index="135">
            -33 callsubr
            203 -146 86 0 return
          </CharString>
          <CharString index="136">
            1485 745 109 callsubr
            return
          </CharString>
          <CharString index="137">
            68 vlineto
            -132 15 -17 16 76 vvcurveto
            return
          </CharString>
          <CharString index="138">
            -57 -50 -67 -67 57 -50 70 hvcurveto
            endchar
          </CharString>
          <CharString index="139">
            -69 vlineto
            117 -14 17 -17 -65 vvcurveto
            return
          </CharString>
          <CharString index="140">
            rmoveto
            146 97 72 110 110 return
          </CharString>
          <CharString index="141">
            vlineto
            -97 -21 -26 -151 -17 vhcurveto
            -68 return
          </CharString>
          <CharString index="142">
            1846 -30 callgsubr
            return
          </CharString>
          <CharString index="143">
            -257 vlineto
            -147 -284 rlineto
            return
          </CharString>
          <CharString index="144">
            -161 -120 -75 -101 -56 vhcurveto
            return
          </CharString>
          <CharString index="145">
            277 106 -71 callgsubr
            return
          </CharString>
          <CharString index="146">
            90 493 -86 callsubr
            return
          </CharString>
          <CharString index="147">
            70 183 -3 hvcurveto
            -73 hlineto
            -88 return
          </CharString>
          <CharString index="148">
            rmoveto
            150 37 143 124 return
          </CharString>
          <CharString index="149">
            vlineto
            -62 -14 -15 -107 -14 vhcurveto
            -68 return
          </CharString>
          <CharString index="150">
            -130 -80 callsubr
            return
          </CharString>
          <CharString index="151">
            118 65 119 118 return
          </CharString>
          <CharString index="152">
            -18 -20 -141 -17 vhcurveto
            -68 return
          </CharString>
          <CharString index="153">
            rmoveto
            153 124 67 86 53 hvcurveto
            -95 22 83 -52 107 hhcurveto
            76 63 23 25 36 hvcurveto
            63 vlineto
            -5 -13 -18 -2 -19 hhcurveto
            -59 -46 33 87 hvcurveto
            485 vlineto
            224 -154 100 -245 -242 -181 -101 -137 -69 55 -49 70 71 54 50 67 49 -28 41 -40 18 vhcurveto
            22 44 56 12 60 hhcurveto
            146 95 -64 -180 hvcurveto
            -85 vlineto
            -221 -48 rlineto
            -284 -61 -112 -97 -157 vvcurveto
            -147 123 -103 171 vhcurveto
            -51 291 rmoveto
            109 67 64 190 43 vhcurveto
            117 25 rlineto
            -315 vlineto
            -61 -40 -70 -35 -86 hhcurveto
            -102 -76 62 108 hvcurveto
            return
          </CharString>
          <CharString index="154">
            rmoveto
            -121 -176 -40 -31 -120 -15 rrcurveto
            -68 454 68 vlineto
            -155 21 -5 35 93 147 rrcurveto
            229 356 250 -381 80 -119 -7 -37 -151 -22 rlinecurve
            -68 612 68 vlineto
            -103 23 -43 28 -76 117 rrcurveto
            -345 524 279 402 116 168 40 31 120 15 rlinecurve
            68 -454 -68 vlineto
            156 -21 4 -35 -92 -145 rrcurveto
            -217 -342 -241 365 -80 123 7 34 152 21 rlinecurve
            68 -609 -68 vlineto
            104 -23 39 -29 77 -116 333 -507 rcurveline
            endchar
          </CharString>
          <CharString index="155">
            rmoveto
            -387 279 -177 305 360 221 221 350 4 vhcurveto
            7 853 rlineto
            -2 14 15 -1 14 hhcurveto
            152 81 66 108 89 -59 88 -83 48 hvcurveto
            -68 hlineto
            20 -27 16 -55 -54 vvcurveto
            -119 -1 -79 -94 -189 hhcurveto
            -119 -68 hlineto
            155 -21 16 -21 1 -107 5 -670 rcurveline
            -289 1 -152 -158 -246 hhcurveto
            -233 -173 146 296 hvcurveto
            689 vlineto
            94 21 20 150 21 vhcurveto
            68 -589 -68 vlineto
            133 -21 21 -20 -94 vvcurveto
            endchar
          </CharString>
          <CharString index="156">
            rmoveto
            -445 -68 hlineto
            129 -18 24 -28 -3 -106 rrcurveto
            -29 -990 -5 -122 -17 -26 -136 -18 rlinecurve
            -68 428 68 vlineto
            -139 18 -16 27 1 125 rrcurveto
            5 1009 476 -1247 130 0 82 247 372 999 27 -1055 2 -88 -20 -19 -133 -16 rlinecurve
            -68 572 68 vlineto
            -139 16 -17 20 -3 90 rrcurveto
            -28 1056 -2 89 22 21 137 16 rlinecurve
            68 vlineto
            -454 1 -393 -1143 rlineto
            endchar
          </CharString>
          <CharString index="157">
            rmoveto
            281 -232 144 -384 vhcurveto
            -580 -75 callsubr
            -107 callsubr
            -17 callsubr
            358 157 vlineto
            356 260 155 298 hvcurveto
            -282 -16 rmoveto
            -219 -132 -124 -272 -12 vhcurveto
            -87 -3 0 720 87 -4 rlineto
            274 -11 130 -133 -214 vvcurveto
            endchar
          </CharString>
          <CharString index="158">
            308 -160 236 -229 119 vhcurveto
            -4 27 28 -4 30 hhcurveto
            174 120 59 129 1 hvcurveto
            92 -64 86 -86 49 vhcurveto
            -68 hlineto
            20 -27 16 -58 -51 vvcurveto
            -125 -1 -74 -85 -151 -93 -100 24 -130 hhcurveto
            -449 -292 -332 -418 hvcurveto
            -102 callsubr
            -98 callsubr
          </CharString>
          <CharString index="159">
            1254 90 487 116 callsubr
            -59 callgsubr
            return
          </CharString>
          <CharString index="160">
            -635 97 callsubr
            527 30 callsubr
            550 vlineto
            53 50 116 36 109 hhcurveto
            46 45 -6 -7 23 hvcurveto
            12 18 9 34 34 vvcurveto
            68 -34 59 -83 -94 -90 -76 -161 -113 vhcurveto
            return
          </CharString>
          <CharString index="161">
            -57 16 -9 14 56 vvcurveto
            811 vlineto
            -378 -45 0 -62 -89 callsubr
            -582 vlineto
            -60 -36 -71 -46 -97 hhcurveto
            -137 -78 82 157 hvcurveto
            return
          </CharString>
          <CharString index="162">
            rmoveto
            51 40 34 46 46 -40 34 -51 hvcurveto
            -10 hlineto
            -52 -55 callsubr
            -57 callsubr
            -42 callsubr
            -9 hlineto
            -52 -55 callsubr
            52 hvcurveto
            return
          </CharString>
          <CharString index="163">
            601 68 vlineto
            -116 16 -31 30 -57 154 rrcurveto
            -822 315 rmoveto
            215 626 219 -626 rlineto
            return
          </CharString>
          <CharString index="164">
            rmoveto
            506 681 -506 vlineto
            -86 -17 -18 -133 -17 vhcurveto
            -68 574 68 vlineto
            -138 17 -21 20 89 vvcurveto
            return
          </CharString>
          <CharString index="165">
            rmoveto
            -382 -45 0 -62 70 -18 rlineto
            60 -17 8 -13 -56 vvcurveto
            -495 vlineto
            -211 186 callsubr
            endchar
          </CharString>
          <CharString index="166">
            293 1188 rmoveto
            79 64 59 78 78 -64 58 -79 -79 -63 -58 -78 -78 63 -59 79 hvcurveto
            return
          </CharString>
          <CharString index="167">
            -2 15 hvcurveto
            -72 -7 hlineto
            -89 -76 -67 -121 -122 -76 68 88 vhcurveto
            7 106 callgsubr
            return
          </CharString>
          <CharString index="168">
            hlineto
            48 219 60 49 288 9 rrcurveto
            334 11 -810 -1301 rlineto
            -64 vlineto
            return
          </CharString>
          <CharString index="169">
            1202 rmoveto
            92 callgsubr
            452 -52 callgsubr
            57 -53 70 hvcurveto
            return
          </CharString>
          <CharString index="170">
            284 90 284 -90 0 61 -260 155 -49 0 -259 -155 rlineto
            return
          </CharString>
          <CharString index="171">
            23 31 40 hhcurveto
            28 23 -13 -23 32 hvcurveto
            29 -22 rlineto
            -35 50 42 -24 57 hhcurveto
            return
          </CharString>
          <CharString index="172">
            hhcurveto
            -117 -88 37 56 -3 hvcurveto
            -76 hlineto
            -128 -8 120 -82 172 hhcurveto
            return
          </CharString>
          <CharString index="173">
            175 140 63 91 72 vhcurveto
            -100 callgsubr
            203 callsubr
            return
          </CharString>
          <CharString index="174">
            1585 rmoveto
            65 51 48 63 63 -51 48 -65 -46 callsubr
            return
          </CharString>
          <CharString index="175">
            1516 rmoveto
            -222 -196 -220 196 24 callsubr
            return
          </CharString>
          <CharString index="176">
            rmoveto
            -7 -304 rlineto
            63 -19 callgsubr
            25 callgsubr
            endchar
          </CharString>
          <CharString index="177">
            -462 352 -286 387 449 293 332 418 return
          </CharString>
          <CharString index="178">
            1567 rmoveto
            95 77 73 190 -3 hvcurveto
            -77 hlineto
            -91 -4 return
          </CharString>
          <CharString index="179">
            1554 rmoveto
            319 276 rlineto
            8 36 callsubr
            return
          </CharString>
          <CharString index="180">
            74 hlineto
            52 1 26 21 42 hhcurveto
            26 27 -7 -15 38 hvcurveto
            31 return
          </CharString>
          <CharString index="181">
            -3 -22 -30 -40 hhcurveto
            -27 -23 12 23 -31 hvcurveto
            -28 21 rlineto
            35 return
          </CharString>
          <CharString index="182">
            -11 811 1301 rlineto
            64 -1079 vlineto
            -14 -367 rlineto
            return
          </CharString>
          <CharString index="183">
            -42 -41 -54 -54 42 -40 54 hvcurveto
            343 77 callgsubr
            return
          </CharString>
          <CharString index="184">
            -52 -70 -70 56 -53 71 hvcurveto
            453 hmoveto
            91 callgsubr
            return
          </CharString>
          <CharString index="185">
            1847 rmoveto
            568 -79 0 61 -568 147 rlineto
            return
          </CharString>
          <CharString index="186">
            1847 rmoveto
            129 vlineto
            -568 -147 rlineto
            -61 vlineto
            return
          </CharString>
          <CharString index="187">
            -378 -45 0 -61 70 -19 rlineto
            56 -16 8 -13 -57 vvcurveto
            return
          </CharString>
          <CharString index="188">
            88 0 -233 369 -150 0 -233 -369 rlineto
            return
          </CharString>
          <CharString index="189">
            -36 callgsubr
            -55 -42 -41 -54 -54 42 -40 55 hvcurveto
            return
          </CharString>
          <CharString index="190">
            1194 rmoveto
            75 61 56 74 75 -61 56 -75 -75 return
          </CharString>
          <CharString index="191">
            -217 333 -140 0 -216 -333 rlineto
            endchar
          </CharString>
          <CharString index="192">
            75 hlineto
            52 27 21 41 26 27 -7 -15 39 vhcurveto
            30 return
          </CharString>
          <CharString index="193">
            -31 -35 -27 hvcurveto
            -61 vlineto
            8 18 34 8 34 hhcurveto
            return
          </CharString>
          <CharString index="194">
            1613 rmoveto
            539 127 -539 hlineto
            return
          </CharString>
          <CharString index="195">
            -203 146 -86 0 142 callsubr
            return
          </CharString>
          <CharString index="196">
            582 68 vlineto
            -141 17 -18 20 89 vvcurveto
            return
          </CharString>
          <CharString index="197">
            260 179 75 136 299 vvcurveto
            endchar
          </CharString>
          <CharString index="198">
            rmoveto
            152 vlineto
            -554 -173 rlineto
            -71 vlineto
            return
          </CharString>
          <CharString index="199">
            -146 -255 -251 146 -149 return
          </CharString>
          <CharString index="200">
            -146 150 -178 -187 -143 return
          </CharString>
          <CharString index="201">
            -10 hlineto
            -51 -55 callsubr
            51 hvcurveto
            return
          </CharString>
          <CharString index="202">
            hlineto
            -150 -8 117 -97 168 hhcurveto
            return
          </CharString>
          <CharString index="203">
            143 -179 -80 callsubr
            return
          </CharString>
          <CharString index="204">
            vlineto
            -64 -16 -17 -118 -14 vhcurveto
            -68 return
          </CharString>
          <CharString index="205">
            vlineto
            -66 -17 -16 -117 -15 vhcurveto
            -68 return
          </CharString>
          <CharString index="206">
            -1160 -94 callsubr
            return
          </CharString>
          <CharString index="207">
            -258 vlineto
            -147 -284 rlineto
            return
          </CharString>
          <CharString index="208">
            610 -21 -94 callsubr
            return
          </CharString>
          <CharString index="209">
            -60 -56 -75 -74 60 -56 75 hvcurveto
            return
          </CharString>
          <CharString index="210">
            rmoveto
            296 236 168 266 208 -122 139 -263 87 hvcurveto
            -116 38 rlineto
            -171 57 -95 73 134 vvcurveto
            135 97 96 186 177 133 -107 -220 45 vhcurveto
            64 hlineto
            -11 320 rlineto
            56 -72 -149 48 -184 hhcurveto
            -317 -211 -162 -246 -203 136 -139 246 -80 hvcurveto
            117 -38 rlineto
            183 -61 85 -87 -137 vvcurveto
            -148 -113 -100 -175 -200 -168 115 237 -53 vhcurveto
            -64 hlineto
            12 -331 rlineto
            -66 92 175 -52 204 hhcurveto
            return
          </CharString>
          <CharString index="211">
            rmoveto
            -249 328 201 254 83 107 29 27 100 17 rlinecurve
            69 -383 -69 vlineto
            123 -13 13 -21 -66 -92 rrcurveto
            -154 -208 -157 207 -67 91 12 25 128 11 rlinecurve
            69 -509 -69 vlineto
            72 -14 30 -22 65 -85 rrcurveto
            248 -328 -193 -248 -89 -114 -31 -29 -108 -20 rlinecurve
            -68 391 68 vlineto
            -115 14 -20 23 71 100 rrcurveto
            147 203 158 -207 72 -97 -15 -23 -125 -13 rlinecurve
            -68 514 68 vlineto
            -76 16 -34 24 -66 87 rrcurveto
            endchar
          </CharString>
          <CharString index="212">
            rmoveto
            -160 116 -89 184 -52 vhcurveto
            84 -24 rlineto
            131 -38 54 -47 -85 vvcurveto
            -88 -79 -64 -126 -149 -123 92 166 -37 vhcurveto
            -64 hlineto
            9 -264 rlineto
            -48 76 137 -38 156 hhcurveto
            232 184 116 188 165 -106 93 -190 53 hvcurveto
            -83 24 rlineto
            -121 35 -69 41 86 vvcurveto
            87 76 55 121 133 101 -81 -148 31 vhcurveto
            64 hlineto
            -7 252 rlineto
            36 -58 -115 33 -152 hhcurveto
            -248 -162 -111 -185 hvcurveto
            return
          </CharString>
          <CharString index="213">
            320 -188 188 -221 -147 -130 -72 -107 -52 vhcurveto
            1 650 -378 -45 0 -61 69 -19 rlineto
            57 -16 8 -13 -57 vvcurveto
            -1278 102 vlineto
            104 122 rlineto
            -79 52 110 -64 136 hhcurveto
            265 212 209 322 hvcurveto
            -252 -23 rmoveto
            -253 -118 -153 -169 -94 -73 47 53 -31 vhcurveto
            595 vlineto
            70 38 75 41 95 hhcurveto
            165 112 -150 -250 hvcurveto
            return
          </CharString>
          <CharString index="214">
            rmoveto
            -84 -76 -33 -38 -41 hvcurveto
            -66 vlineto
            5 12 21 6 28 hhcurveto
            70 36 -38 -103 hvcurveto
            -76 -5 -235 -69 vvcurveto
            -228 131 -155 255 253 205 195 375 285 -97 184 -141 -92 -59 -84 -109 28 vhcurveto
            144 -36 96 -155 -194 vvcurveto
            -217 -107 -110 -152 -150 -71 101 182 vhcurveto
            67 8 234 62 vvcurveto
            171 -74 79 -138 vhcurveto
            endchar
          </CharString>
          <CharString index="215">
            1694 847 -26 rmoveto
            412 337 337 412 412 -337 337 -412 -412 -337 -337 -412 -412 337 -337 412 hvcurveto
            64 vmoveto
            -371 -305 308 377 376 305 309 371 371 305 -308 -377 -376 -305 -309 -371 hvcurveto
            return
          </CharString>
          <CharString index="216">
            rmoveto
            446 -350 253 -487 vhcurveto
            -586 -75 callsubr
            -107 callsubr
            -45 callgsubr
            -292 -19 138 callsubr
            0 1286 218 callsubr
            return
          </CharString>
          <CharString index="217">
            rmoveto
            223 -184 123 -268 19 vhcurveto
            210 21 169 105 187 vvcurveto
            220 -203 127 -352 vhcurveto
            -617 -75 callsubr
            -107 callsubr
            190 callsubr
            endchar
          </CharString>
          <CharString index="218">
            rmoveto
            10 -718 rlineto
            -209 4 103 -91 159 hhcurveto
            110 101 45 65 51 hvcurveto
            67 vlineto
            -23 -31 -48 -15 -59 hhcurveto
            -99 -68 56 140 2 hvcurveto
            33 13 584 3 66 vhcurveto
            endchar
          </CharString>
          <CharString index="219">
            1586 rmoveto
            62 -70 callsubr
            -62 -63 -50 -48 -62 -62 50 -48 63 hvcurveto
            340 hmoveto
            62 -70 callsubr
            -62 -63 -50 -48 -62 -62 50 -48 63 hvcurveto
            return
          </CharString>
          <CharString index="220">
            304 -68 40 -137 41 -157 2 rlinecurve
            199 -63 -201 vlineto
            -249 -17 -163 -138 -222 vvcurveto
            -172 104 -127 227 -90 vhcurveto
            return
          </CharString>
          <CharString index="221">
            -22 -30 -40 hhcurveto
            -28 -24 13 23 -31 hvcurveto
            -30 21 rlineto
            35 -50 -42 24 -57 hhcurveto
            -95 -77 -72 -191 3 hvcurveto
            77 hlineto
            91 4 64 callsubr
            return
          </CharString>
          <CharString index="222">
            404 659 rmoveto
            187 143 145 256 250 93 callsubr
            -145 -256 -251 146 -149 178 hvcurveto
            return
          </CharString>
          <CharString index="223">
            rmoveto
            -320 188 -188 221 149 130 73 109 53 vhcurveto
            -172 vlineto
            -92 callsubr
            -58 16 -8 14 56 vvcurveto
            return
          </CharString>
          <CharString index="224">
            1508 rmoveto
            -227 -11 hlineto
            300 -358 rlineto
            91 hlineto
            212 369 rmoveto
            -212 -11 hlineto
            210 -358 rlineto
            87 hlineto
            return
          </CharString>
          <CharString index="225">
            1838 rmoveto
            -225 -8 -20 callgsubr
            285 rmoveto
            -208 -8 hlineto
            189 -277 rlineto
            86 hlineto
            return
          </CharString>
          <CharString index="226">
            1567 rmoveto
            96 77 73 190 -4 hvcurveto
            -77 hlineto
            -91 -4 -22 -30 -40 hhcurveto
            -28 -23 13 23 -32 hvcurveto
            return
          </CharString>
          <CharString index="227">
            1497 rmoveto
            -196 -107 -143 -148 -19 1 -19 3 -18 hvcurveto
            78 8 hlineto
            100 85 75 136 return
          </CharString>
          <CharString index="228">
            283 174 -297 -371 -356 -126 -280 -308 -284 -174 298 371 vhcurveto
            return
          </CharString>
          <CharString index="229">
            1826 rmoveto
            568 -78 0 60 -568 147 rlineto
            -461 vmoveto
            63 callsubr
            return
          </CharString>
          <CharString index="230">
            1826 rmoveto
            129 vlineto
            -568 -147 rlineto
            -60 vlineto
            -254 vmoveto
            63 callsubr
            return
          </CharString>
          <CharString index="231">
            407 1445 rmoveto
            -79 hlineto
            -228 -114 0 -45 134 33 46 callgsubr
            return
          </CharString>
          <CharString index="232">
            1159 rmoveto
            195 108 142 148 20 -2 19 -3 167 callsubr
            return
          </CharString>
          <CharString index="233">
            1 -60 rlineto
            3 9 103 callgsubr
            -31 hvcurveto
            -1 -67 rlineto
            -42 40 74 -28 91 hhcurveto
            return
          </CharString>
          <CharString index="234">
            rmoveto
            -8 -304 rlineto
            64 -19 callgsubr
            208 7 -546 -857 rlineto
            -62 return
          </CharString>
          <CharString index="235">
            1544 185 1255 rmoveto
            -39 callgsubr
            -14 callgsubr
            return
          </CharString>
          <CharString index="236">
            -965 vlineto
            -327 -74 -152 -217 -144 vhcurveto
            -25 callgsubr
          </CharString>
          <CharString index="237">
            1515 rmoveto
            -109 -80 35 callgsubr
            -66 callgsubr
            return
          </CharString>
          <CharString index="238">
            1139 rmoveto
            222 196 220 -196 81 callsubr
            return
          </CharString>
          <CharString index="239">
            -177 83 0 -217 333 -140 0 -217 -333 rlineto
            endchar
          </CharString>
          <CharString index="240">
            1884 rmoveto
            -96 -71 34 callgsubr
            116 callgsubr
            return
          </CharString>
          <CharString index="241">
            1554 rmoveto
            85 hlineto
            -140 283 rlineto
            -268 -7 hlineto
            return
          </CharString>
          <CharString index="242">
            1554 rmoveto
            84 hlineto
            -140 283 rlineto
            -267 -7 hlineto
            return
          </CharString>
          <CharString index="243">
            -16 20 -18 -85 vvcurveto
            -1170 -547 1170 vlineto
            85 return
          </CharString>
          <CharString index="244">
            -89 0 233 -369 151 0 233 369 rlineto
            return
          </CharString>
          <CharString index="245">
            rmoveto
            -391 -225 -240 -363 -12 vhcurveto
            -120 -4 return
          </CharString>
          <CharString index="246">
            rmoveto
            204 359 rlineto
            10 -226 vlineto
            -61 -369 rlineto
            return
          </CharString>
          <CharString index="247">
            rmoveto
            55 42 40 54 54 -42 41 -55 hvcurveto
            -9 hlineto
            -54 return
          </CharString>
          <CharString index="248">
            1844 rmoveto
            -205 -146 -202 146 return
          </CharString>
          <CharString index="249">
            210 -284 156 0 210 284 rlineto
            return
          </CharString>
          <CharString index="250">
            117 -14 17 -17 -65 vvcurveto
            -59 callsubr
            return
          </CharString>
          <CharString index="251">
            86 20 19 131 16 vhcurveto
            69 -574 -68 vlineto
            return
          </CharString>
          <CharString index="252">
            rmoveto
            177 415 -199 0 -45 -415 rlineto
            return
          </CharString>
          <CharString index="253">
            rmoveto
            182 140 97 179 35 hvcurveto
            -174 75 179 -102 188 hhcurveto
            172 138 65 88 70 hvcurveto
            69 vlineto
            -55 -57 -93 -36 -101 hhcurveto
            -223 -152 161 256 -15 hvcurveto
            651 hlineto
            3 20 1 26 24 vvcurveto
            255 -153 166 -264 -134 -116 -53 -91 -75 vhcurveto
            97 -54 -116 47 -151 hhcurveto
            -234 -163 -105 -124 -68 53 -52 69 74 55 53 69 44 -25 38 -37 18 hvcurveto
            20 43 51 11 59 hhcurveto
            147 98 -83 -181 hvcurveto
            -64 vlineto
            -206 -37 rlineto
            -288 -52 -125 -109 -163 vvcurveto
            -158 126 -96 173 vhcurveto
            772 946 rmoveto
            132 64 -110 -183 -8 0 -8 -1 -8 hvcurveto
            -429 -1 rlineto
            212 10 94 106 130 hhcurveto
            -665 -825 rmoveto
            -102 -65 64 108 110 67 74 198 39 hvcurveto
            115 22 rlineto
            -156 vlineto
            -183 -99 -78 -114 vhcurveto
            endchar
          </CharString>
          <CharString index="254">
            rmoveto
            -1006 hlineto
            -590 -1160 -87 -173 -41 -28 -117 -15 rlinecurve
            -68 452 68 vlineto
            -139 19 -22 41 76 157 rrcurveto
            150 306 459 0 4 -402 rlineto
            -86 -18 -18 -133 -17 vhcurveto
            -68 1067 vlineto
            12 410 rlineto
            -63 hlineto
            -52 -271 -68 -38 -279 -13 rrcurveto
            -215 -9 -6 621 220 -3 92 -1 25 -38 31 -163 rlinecurve
            60 hlineto
            -4 488 rlineto
            -61 hlineto
            -31 -165 -23 -35 -90 -2 rrcurveto
            -220 -2 -6 586 200 -8 245 -12 75 -47 55 -221 rlinecurve
            64 hlineto
            -961 287 rmoveto
            73 hlineto
            6 -685 rlineto
            -415 hlineto
            endchar
          </CharString>
          <CharString index="255">
            1408 485 189 rmoveto
            516 152 vlineto
            433 -705 rlineto
            344 64 hlineto
            -75 22 -48 47 -132 214 rrcurveto
            -334 545 233 255 149 162 60 44 123 23 rlinecurve
            68 -478 -68 vlineto
            152 -14 11 -42 -105 -128 -335 -405 rcurveline
            -150 467 hlineto
            144 callsubr
            140 -17 19 -20 -89 vvcurveto
            -1056 -89 callgsubr
            -51 callsubr
            return
          </CharString>
          <CharString index="256">
            rmoveto
            240 -1 -194 151 -388 hhcurveto
            -597 52 callgsubr
            574 68 vlineto
            -131 18 -20 18 85 vvcurveto
            453 219 vlineto
            338 -642 rlineto
            321 64 hlineto
            -60 16 -45 37 -118 218 -193 368 rcurveline
            177 47 118 127 176 vvcurveto
            -270 -19 rmoveto
            -199 -131 -103 -226 -7 vhcurveto
            -130 -4 0 644 107 -4 rlineto
            262 -9 118 -123 -195 vvcurveto
            return
          </CharString>
          <CharString index="257">
            rmoveto
            319 -188 189 -222 -149 -129 -75 -109 -53 vhcurveto
            175 vlineto
            -374 -45 0 -62 69 -18 rlineto
            57 -16 8 -14 -56 vvcurveto
            -1095 97 callsubr
            527 68 vlineto
            -133 15 -16 16 76 vvcurveto
            375 vlineto
            -64 52 99 -47 114 hhcurveto
            262 210 209 322 hvcurveto
            -252 -23 rmoveto
            -251 -117 -155 -168 -94 -77 44 56 -29 54 callgsubr
          </CharString>
          <CharString index="258">
            35 70 46 101 hhcurveto
            131 76 -81 -156 hvcurveto
            -491 42 callsubr
            486 68 vlineto
            -107 14 -14 15 62 vvcurveto
            558 vlineto
            28 -2 25 -4 22 vhcurveto
            55 38 71 40 97 hhcurveto
            134 78 -81 -156 hvcurveto
            -491 vlineto
            -62 -13 -15 -108 -14 vhcurveto
            -68 499 68 vlineto
            -117 15 -17 16 66 vvcurveto
            -10 callgsubr
            endchar
          </CharString>
          <CharString index="259">
            316 64 hlineto
            -68 16 -48 39 -84 144 rrcurveto
            -237 397 81 75 164 148 49 27 108 18 rlinecurve
            69 -432 -69 vlineto
            126 -18 12 -31 -92 -96 rrcurveto
            -192 -204 -124 -1 0 912 -54 callsubr
            -100 callsubr
            338 126 vlineto
            return
          </CharString>
          <CharString index="260">
            1433 rmoveto
            92 68 64 132 hvcurveto
            -75 hlineto
            -52 -27 -22 -42 -25 -27 8 15 -39 vhcurveto
            -30 11 rlineto
            17 -42 -42 11 -46 hhcurveto
            -91 -69 -64 -132 1 hvcurveto
            74 hlineto
            52 1 26 21 42 hhcurveto
            25 27 -7 -15 39 hvcurveto
            30 -12 rlineto
            -16 42 42 -11 46 hhcurveto
            return
          </CharString>
          <CharString index="261">
            69 vlineto
            -55 -59 -95 -36 -100 hhcurveto
            -218 -158 161 267 235 130 146 183 61 50 -11 -24 38 hvcurveto
            -51 -12 -39 -48 -59 vvcurveto
            -69 54 -54 71 70 56 53 77 132 -118 113 -235 -289 -236 -206 -319 return
          </CharString>
          <CharString index="262">
            1139 rmoveto
            170 358 rlineto
            11 -215 vlineto
            -33 -369 rlineto
            -177 46 rmoveto
            64 51 47 64 63 -51 47 -64 -64 -52 -47 -63 -64 52 -47 64 hvcurveto
            533 hmoveto
            64 52 47 64 63 -52 47 -64 return
          </CharString>
          <CharString index="263">
            rmoveto
            -377 -45 0 -62 69 -18 rlineto
            56 -16 9 -14 -56 vvcurveto
            -650 vlineto
            -288 -36 -145 -160 -137 vhcurveto
            41 -57 64 43 rlineto
            259 179 75 136 299 vvcurveto
            endchar
          </CharString>
          <CharString index="264">
            1773 rmoveto
            95 70 55 112 -1 hvcurveto
            -76 hlineto
            -45 -1 -27 -42 callgsubr
            15 -44 -42 9 -47 hhcurveto
            -94 -71 -55 -113 1 hvcurveto
            76 hlineto
            45 1 27 19 43 hhcurveto
            return
          </CharString>
          <CharString index="265">
            1433 rmoveto
            93 68 64 132 -1 hvcurveto
            -75 hlineto
            -52 -27 -22 -41 -26 -27 8 15 -39 vhcurveto
            -30 11 rlineto
            17 -42 -41 11 -46 hhcurveto
            -91 -70 -64 -132 1 hvcurveto
            return
          </CharString>
          <CharString index="266">
            1291 vlineto
            -378 -45 0 -61 69 -19 rlineto
            56 -16 9 -13 -57 vvcurveto
            -371 vlineto
            64 -53 -98 47 -115 hhcurveto
            -262 -209 -209 -322 hvcurveto
            return
          </CharString>
          <CharString index="267">
            1892 rmoveto
            -176 96 callgsubr
            122 121 76 -68 -88 vhcurveto
            -7 72 vlineto
            2 15 1 16 17 vvcurveto
            130 -98 125 -174 vhcurveto
            return
          </CharString>
          <CharString index="268">
            vlineto
            -86 -18 -18 -132 -17 vhcurveto
            -68 573 68 vlineto
            -138 17 -21 20 89 vvcurveto
            -66 callsubr
            -573 -68 vlineto
            132 -17 18 -18 -86 vvcurveto
            return
          </CharString>
          <CharString index="269">
            1799 rmoveto
            569 99 -569 hlineto
            285 -351 rmoveto
            56 44 38 50 49 -44 38 -56 -56 -44 -38 -49 -50 44 -38 56 hvcurveto
            return
          </CharString>
          <CharString index="270">
            -927 -718 81 callgsubr
            1095 -741 rmoveto
            -101 callgsubr
            93 callsubr
            92 callsubr
            178 hvcurveto
            return
          </CharString>
          <CharString index="271">
            253 117 153 168 94 77 -44 -56 29 vhcurveto
            -595 vlineto
            -70 -38 -75 -41 -96 hhcurveto
            -164 -112 150 250 hvcurveto
            return
          </CharString>
          <CharString index="272">
            1638 rmoveto
            -75 -63 -31 -34 -35 hvcurveto
            -59 vlineto
            15 24 46 14 47 hhcurveto
            62 37 -25 -41 -40 -34 -26 return
          </CharString>
          <CharString index="273">
            78 hlineto
            99 4 23 33 43 hhcurveto
            29 25 -14 -25 33 hvcurveto
            31 -24 rlineto
            -38 52 45 -26 59 hhcurveto
            return
          </CharString>
          <CharString index="274">
            17 hvcurveto
            -78 -8 hlineto
            -99 -84 -76 -136 -136 -85 76 99 vhcurveto
            8 -78 -61 callgsubr
            return
          </CharString>
          <CharString index="275">
            1 367 rlineto
            273 83 -273 194 hlineto
            -244 -30 rlineto
            -164 -134 vlineto
            endchar
          </CharString>
          <CharString index="276">
            97 20 vhcurveto
            53 11 rlineto
            -153 vlineto
            -26 -19 -35 -16 -43 hhcurveto
            -51 -37 28 51 hvcurveto
            endchar
          </CharString>
          <CharString index="277">
            446 rmoveto
            275 -214 153 -361 vhcurveto
            -197 362 hlineto
            98 21 25 return
          </CharString>
          <CharString index="278">
            68 vlineto
            -119 15 -15 16 66 vvcurveto
            667 vlineto
            65 15 17 119 14 vhcurveto
            69 return
          </CharString>
          <CharString index="279">
            -307 223 -208 297 hvcurveto
            12 93 rmoveto
            -160 6 callgsubr
            return
          </CharString>
          <CharString index="280">
            828 vlineto
            7 325 rlineto
            -64 hlineto
            -40 -197 -58 -36 -152 -6 rrcurveto
            return
          </CharString>
          <CharString index="281">
            58 1213 rmoveto
            134 -1048 hlineto
            -66 -17 -16 -117 -15 vhcurveto
            -68 return
          </CharString>
          <CharString index="282">
            -4 -23 -33 -43 hhcurveto
            -29 -25 14 25 -33 hvcurveto
            -31 23 rlineto
            39 -51 -45 25 return
          </CharString>
          <CharString index="283">
            -48 -29 -66 -57 -51 16 22 -33 vhcurveto
            -65 vlineto
            -36 36 74 -29 85 hhcurveto
            endchar
          </CharString>
          <CharString index="284">
            -48 -29 -67 -57 -50 16 22 -33 vhcurveto
            -65 vlineto
            -36 36 73 -29 86 hhcurveto
            endchar
          </CharString>
          <CharString index="285">
            -221 80 -180 127 -129 vhcurveto
            -129 -143 65 -60 129 144 rlineto
            -103 130 165 -56 172 hhcurveto
            449 293 332 418 221 -81 181 -127 128 hvcurveto
            129 144 -65 59 -128 -144 rlineto
            103 -131 -165 56 -172 8 callgsubr
            148 119 -81 -131 79 vhcurveto
            -712 -796 rlineto
            -45 107 -24 128 138 vvcurveto
            892 -33 rmoveto
            -356 -126 -280 -308 -149 -118 81 131 -79 vhcurveto
            711 796 rlineto
            45 -106 24 -128 -138 vvcurveto
            endchar
          </CharString>
          <CharString index="286">
            rmoveto
            157 100 92 193 97 hvcurveto
            -203 47 68 -76 122 hhcurveto
            76 69 36 54 44 hvcurveto
            63 vlineto
            -11 -17 -25 -8 -25 hhcurveto
            -71 -53 62 292 -78 hvcurveto
            -1 5 234 519 rlineto
            -242 hlineto
            -21 -101 -28 -113 -32 -110 rrcurveto
            224 -64 -97 121 -208 hhcurveto
            -256 -167 -222 -298 -339 171 -180 200 hvcurveto
            -115 535 rmoveto
            243 74 163 123 118 54 -112 -254 46 vhcurveto
            30 -166 rlineto
            -188 -70 -70 -89 -105 hhcurveto
            -126 -74 170 233 hvcurveto
            endchar
          </CharString>
          <CharString index="287">
            rmoveto
            301 228 214 308 145 -49 122 -83 89 hvcurveto
            90 99 -61 57 -92 -99 rlineto
            65 -87 -111 36 -124 hhcurveto
            -301 -228 -213 -309 -146 50 -123 85 -90 hvcurveto
            -86 -93 61 -57 87 95 rlineto
            -64 87 110 -36 123 hhcurveto
            -263 531 rmoveto
            256 97 159 166 89 75 -52 -92 49 vhcurveto
            -447 -485 rlineto
            -18 61 -11 72 81 vvcurveto
            275 -440 rmoveto
            -88 -74 51 90 -49 hvcurveto
            447 484 rlineto
            17 -60 10 -71 -79 vvcurveto
            -256 -97 -159 -166 vhcurveto
            endchar
          </CharString>
          <CharString index="288">
            rmoveto
            -285 145 -161 194 169 116 126 160 41 vhcurveto
            30 -159 108 -128 189 1 rrcurveto
            221 158 202 323 297 -130 216 -152 -96 -58 -85 -114 34 hvcurveto
            163 -39 122 -174 -204 vvcurveto
            -171 -81 -108 -121 -134 -76 129 279 vhcurveto
            187 -224 -188 vlineto
            -299 -73 -107 -114 -114 -64 111 223 234 73 178 123 100 vhcurveto
            -42 46 rlineto
            -251 -88 -156 -230 -272 vvcurveto
            endchar
          </CharString>
          <CharString index="289">
            rmoveto
            227 159 85 116 79 hvcurveto
            68 vlineto
            -62 -72 -125 -46 -156 hhcurveto
            -162 -1 -98 57 99 vvcurveto
            100 97 62 201 vhcurveto
            96 hlineto
            -30 162 rlineto
            -43 hlineto
            -234 -96 50 102 93 84 62 161 83 67 -11 -25 50 hvcurveto
            -34 -18 -23 -36 -43 vvcurveto
            -57 44 -56 72 65 52 52 67 121 -128 98 -273 -298 -145 -123 -162 -151 134 -97 209 -4 vhcurveto
            -229 -5 -137 -88 -143 vvcurveto
            -163 158 -103 245 vhcurveto
            endchar
          </CharString>
          <CharString index="290">
            -450 334 -284 376 -14 vhcurveto
            -88 -75 -60 -96 -94 vvcurveto
            -119 91 -75 117 85 73 36 51 34 vhcurveto
            67 vlineto
            -16 -18 -29 -13 -34 hhcurveto
            -75 -56 75 105 59 15 57 26 39 hvcurveto
            420 25 270 322 402 vvcurveto
            -103 callsubr
            -102 callsubr
            308 284 173 -297 -371 -356 -126 -280 -308 -284 -174 298 371 vhcurveto
            endchar
          </CharString>
          <CharString index="291">
            206 -103 164 -167 76 hvcurveto
            -10 42 47 -6 48 hhcurveto
            153 100 65 107 hvcurveto
            1 88 -62 88 -84 48 rrcurveto
            -68 hlineto
            19 -27 16 -56 -53 vvcurveto
            -116 -79 -80 -137 vhcurveto
            -84 -65 21 -115 hhcurveto
            -288 -227 -219 -305 -310 210 -205 310 hvcurveto
            12 93 rmoveto
            -162 -109 171 265 262 92 155 167 162 109 -171 -266 -262 -92 -154 -167 hvcurveto
            return
          </CharString>
          <CharString index="292">
            rmoveto
            -83 66 -62 93 151 103 116 249 129 vhcurveto
            451 876 62 122 28 22 127 18 rlinecurve
            68 -449 -68 vlineto
            174 -21 5 -14 -60 -128 rrcurveto
            -296 -618 -330 625 -62 120 5 17 172 19 rlinecurve
            68 -615 -68 vlineto
            124 -18 25 -21 61 -112 rrcurveto
            482 -882 -59 -120 -51 -82 -57 -45 rlinecurve
            4 0 5 5 vvcurveto
            80 -62 66 -77 -77 -63 -61 -77 vhcurveto
            endchar
          </CharString>
          <CharString index="293">
            138 -113 198 159 116 75 100 57 vhcurveto
            -165 vlineto
            379 44 0 61 -72 18 rlineto
            -59 16 -8 14 56 vvcurveto
            755 vlineto
            -2 14 15 -1 16 hhcurveto
            112 78 54 102 hvcurveto
            1 85 -64 89 -86 48 rrcurveto
            -68 hlineto
            19 -26 16 -55 -53 vvcurveto
            -124 -78 -75 -234 -21 vhcurveto
            -123 -12 0 -60 70 -18 rlineto
            59 -17 9 -13 -56 vvcurveto
            -582 vlineto
            -60 -36 -72 -46 -97 hhcurveto
            -137 -78 82 157 hvcurveto
            return
          </CharString>
          <CharString index="294">
            rmoveto
            309 vlineto
            127 -1 289 -467 rlineto
            315 64 hlineto
            -69 17 -43 43 -89 142 rrcurveto
            -232 363 80 84 168 170 44 28 104 17 rlinecurve
            69 -416 -69 vlineto
            123 -17 14 -38 -97 -107 rrcurveto
            -193 -218 -125 -1 rlineto
            291 vlineto
            117 callgsubr
            -59 callsubr
            -100 callsubr
            endchar
          </CharString>
          <CharString index="295">
            251 hlineto
            117 -6 639 -1 vvcurveto
            79 32 71 47 98 hhcurveto
            144 68 -77 -241 -296 -5 -382 -10 -345 hvcurveto
            251 hlineto
            -2 1089 rlineto
            294 -147 95 -192 -164 -113 -84 -109 -44 vhcurveto
            121 -11 -76 63 -109 hhcurveto
            -80 -72 -32 -39 -42 hvcurveto
            -67 vlineto
            6 13 19 5 24 hhcurveto
            83 39 -44 -126 -3 hvcurveto
            -39 -15 -605 -2 -68 vhcurveto
            endchar
          </CharString>
          <CharString index="296">
            rmoveto
            727 vlineto
            272 -7 0 102 -272 -8 rlineto
            200 vlineto
            158 53 64 82 7 7 -1 -1 6 vhcurveto
            -19 -17 -12 -26 -30 vvcurveto
            -60 44 -44 59 56 47 45 59 91 -82 72 -152 -194 -144 -129 -252 vhcurveto
            -122 vlineto
            -135 -49 rlineto
            -52 134 -732 97 callsubr
            526 30 callsubr
            endchar
          </CharString>
          <CharString index="297">
            617 vlineto
            341 287 140 279 hvcurveto
            -344 651 rmoveto
            -171 -109 -100 -202 -1 vhcurveto
            -167 567 hlineto
            125 -4 rlineto
            252 -8 101 -112 -171 vvcurveto
            62 -669 rmoveto
            -208 -158 -102 -257 -8 vhcurveto
            -125 -4 0 639 167 -1 rlineto
            240 -1 133 -116 -199 vvcurveto
            return
          </CharString>
          <CharString index="298">
            rmoveto
            89 75 37 48 35 hvcurveto
            -1 68 rlineto
            -17 -17 -29 -12 -35 hhcurveto
            -71 -58 76 118 52 13 55 23 44 hvcurveto
            268 29 196 205 286 vvcurveto
            -101 callsubr
            -302 216 -206 290 -7 vhcurveto
            -87 -80 -55 -96 -97 vvcurveto
            -117 93 -75 108 vhcurveto
            -33 558 rmoveto
            -160 6 callgsubr
            endchar
          </CharString>
          <CharString index="299">
            rmoveto
            180 -128 119 -321 vhcurveto
            -163 213 hlineto
            76 17 16 132 14 vhcurveto
            69 -527 32 callsubr
            -59 callsubr
            566 vlineto
            248 176 119 191 hvcurveto
            -495 219 rmoveto
            164 -2 84 -83 -140 vvcurveto
            -142 -105 -73 -143 -6 vhcurveto
            -117 -4 rlineto
            450 vlineto
            endchar
          </CharString>
          <CharString index="300">
            -158 162 268 235 129 146 181 54 45 -9 -17 36 hvcurveto
            -44 -17 -31 -45 -52 vvcurveto
            -69 54 -54 71 69 56 54 74 136 -125 91 -210 5 vhcurveto
            202 -63 -204 vlineto
            -266 -21 -210 -201 -301 vvcurveto
            -305 207 -198 269 -11 vhcurveto
            -203 vlineto
            endchar
          </CharString>
          <CharString index="301">
            65 17 17 117 14 vhcurveto
            69 -497 -69 vlineto
            106 -13 13 -15 -62 vvcurveto
            -758 -383 758 vlineto
            62 14 15 106 13 vhcurveto
            69 -484 -69 vlineto
            106 -13 14 -15 -62 vvcurveto
            -758 -383 758 vlineto
            62 14 15 105 13 vhcurveto
            69 -497 32 callsubr
            -38 callgsubr
            return
          </CharString>
          <CharString index="302">
            428 -1178 185 0 424 1157 63 175 28 30 121 16 rlinecurve
            68 -444 -68 vlineto
            154 -21 18 -34 -55 -161 rrcurveto
            -316 -926 -327 940 -51 148 21 35 148 19 rlinecurve
            68 -601 -68 vlineto
            116 -16 31 -30 57 -154 rrcurveto
            return
          </CharString>
          <CharString index="303">
            rmoveto
            285 226 208 312 312 -200 207 -304 -292 -226 -208 -312 -312 201 -207 310 hvcurveto
            7 93 rmoveto
            -161 -97 177 263 256 89 157 162 154 97 -177 -264 -256 -89 -156 -155 hvcurveto
            endchar
          </CharString>
          <CharString index="304">
            306 -767 131 0 300 751 57 143 22 20 93 15 rlinecurve
            69 -373 -69 vlineto
            128 -13 20 -26 -45 -125 rrcurveto
            -188 -516 -191 518 -45 123 21 26 128 13 rlinecurve
            69 -530 -69 vlineto
            92 -18 25 -23 49 -121 rrcurveto
            return
          </CharString>
          <CharString index="305">
            1394 1307 419 rmoveto
            223 -184 123 -268 19 vhcurveto
            210 21 169 105 187 vvcurveto
            220 -203 127 -352 vhcurveto
            -617 -75 callsubr
            -107 callsubr
            190 callsubr
            return
          </CharString>
          <CharString index="306">
            318 -236 rmoveto
            123 79 41 62 62 -79 40 -123 hvcurveto
            -68 hlineto
            -122 -81 -40 -62 -62 81 -41 122 hvcurveto
            59 54 rmoveto
            -51 hlineto
            -42 -24 19 30 29 24 19 42 hvcurveto
            51 hlineto
            43 23 -19 -29 -30 -23 -19 -43 hvcurveto
            return
          </CharString>
          <CharString index="307">
            vlineto
            -165 4 -140 90 -54 234 rrcurveto
            -64 hlineto
            12 -309 96 -69 155 -40 160 -2 rlinecurve
            -200 1122 rmoveto
            107 70 83 130 15 vhcurveto
            -444 vlineto
            -138 60 -62 72 107 vvcurveto
            488 -785 rmoveto
            -127 return
          </CharString>
          <CharString index="308">
            hmoveto
            203 vlineto
            161 10 129 60 67 85 rrcurveto
            69 vlineto
            -58 -61 -103 -35 -106 hhcurveto
            -30 -29 3 6 -28 hvcurveto
            801 vlineto
            1 12 12 0 12 hhcurveto
            55 48 -9 -19 38 hvcurveto
            -40 -18 -28 -41 -50 vvcurveto
            -69 53 -54 70 69 return
          </CharString>
          <CharString index="309">
            -484 rmoveto
            88 81 30 47 37 hvcurveto
            68 vlineto
            -19 -20 -35 -13 -42 hhcurveto
            -59 -53 40 79 86 53 82 151 117 hvcurveto
            -76 -2 rlineto
            -235 -128 -82 -109 -109 vvcurveto
            -106 84 -63 108 vhcurveto
            endchar
          </CharString>
          <CharString index="310">
            -152 159 253 -16 hvcurveto
            666 hlineto
            2 17 2 27 26 vvcurveto
            258 -156 167 -272 -292 -198 -215 38 callgsubr
            -445 -1 rlineto
            215 9 94 109 139 hhcurveto
            return
          </CharString>
          <CharString index="311">
            105 126 72 -44 44 -63 -62 -43 -45 -58 -53 40 -43 50 -3 hvcurveto
            -41 -42 -66 -24 -80 hhcurveto
            -80 -65 24 41 -42 hvcurveto
            47 43 44 55 58 -43 45 -61 -64 -44 -44 -72 -126 120 -105 190 hvcurveto
            return
          </CharString>
          <CharString index="312">
            481 vlineto
            233 -2 92 -2 26 -36 28 -164 rlinecurve
            61 487 -61 hlineto
            -33 -166 -23 -33 -90 -2 rrcurveto
            -233 -2 0 596 215 -8 245 -9 76 -49 52 -222 rlinecurve
            64 hlineto
            endchar
          </CharString>
          <CharString index="313">
            110 -80 86 -128 18 hvcurveto
            108 20 73 66 88 vvcurveto
            103 -93 69 -142 -148 -100 -81 -115 -38 vhcurveto
            43 -23 rlineto
            71 33 66 35 78 hhcurveto
            83 50 -42 -67 -76 -75 -48 -162 -18 hvcurveto
            return
          </CharString>
          <CharString index="314">
            -125 6 -639 rcurveline
            -297 3 -156 -160 -246 hhcurveto
            -232 -171 148 299 hvcurveto
            693 vlineto
            89 18 20 141 17 vhcurveto
            68 -574 -68 vlineto
            130 -17 20 -18 -86 vvcurveto
            return
          </CharString>
          <CharString index="315">
            326 659 rmoveto
            164 140 84 157 206 callsubr
            -56 vlineto
            4 27 callgsubr
            32 vvcurveto
            44 -34 32 -43 -45 -34 -33 -45 -93 104 -74 148 vhcurveto
            return
          </CharString>
          <CharString index="316">
            264 1475 rmoveto
            -71 -48 -51 -73 -1 hvcurveto
            -50 8 -35 26 -122 vhcurveto
            57 -278 58 0 57 278 rlineto
            25 122 8 35 50 vvcurveto
            73 -48 51 -71 vhcurveto
            return
          </CharString>
          <CharString index="317">
            94 callgsubr
            28 -21 rlineto
            -35 49 41 -23 55 hhcurveto
            endchar
          </CharString>
          <CharString index="318">
            -71 -7 hlineto
            -89 -76 -67 -122 -121 -76 68 88 vhcurveto
            7 return
          </CharString>
          <CharString index="319">
            vlineto
            82 -3 257 -10 75 -41 44 -228 rlinecurve
            63 hlineto
            endchar
          </CharString>
          <CharString index="320">
            1846 rmoveto
            568 -78 0 61 -568 147 rlineto
            return
          </CharString>
          <CharString index="321">
            1434 195 1176 rmoveto
            195 callsubr
            return
          </CharString>
          <CharString index="322">
            339 358 rlineto
            11 -258 vlineto
            -167 -369 rlineto
            return
          </CharString>
          <CharString index="323">
            262 -425 -434 -286 -271 -360 -312 return
          </CharString>
          <CharString index="324">
            150 2444 -150 hlineto
            410 -2444 rmoveto
            return
          </CharString>
          <CharString index="325">
            120 -4 rlineto
            365 -12 223 -245 -378 vvcurveto
            return
          </CharString>
          <CharString index="326">
            73 hlineto
            89 3 22 30 40 hhcurveto
            27 23 -12 -23 31 hvcurveto
            return
          </CharString>
          <CharString index="327">
            69 vlineto
            -25 -33 -52 -17 -53 hhcurveto
            -96 -68 53 161 hvcurveto
            return
          </CharString>
          <CharString index="328">
            65 16 17 118 14 vhcurveto
            69 -499 -69 vlineto
            107 -13 return
          </CharString>
          <CharString index="329">
            63 -71 74 114 vvcurveto
            118 86 90 158 175 return
          </CharString>
          <CharString index="330">
            18 443 rlineto
            -64 hlineto
            -230 -50 -71 -30 -283 hhcurveto
            return
          </CharString>
          <CharString index="331">
            3 15 1 16 17 vvcurveto
            130 -98 125 -175 vhcurveto
            return
          </CharString>
          <CharString index="332">
            0 -277 1460 rmoveto
            554 117 -554 hlineto
            return
          </CharString>
          <CharString index="333">
            -19 vhcurveto
            501 vlineto
            164 -70 61 -71 -119 vvcurveto
            endchar
          </CharString>
          <CharString index="334">
            -25 rmoveto
            -277 -106 -277 106 0 -72 254 -183 return
          </CharString>
          <CharString index="335">
            -31 66 hhcurveto
            48 40 13 17 23 hvcurveto
            47 vlineto
            -3 -7 -9 return
          </CharString>
          <CharString index="336">
            -52 -55 16 22 -31 hvcurveto
            -67 vlineto
            -42 40 74 -28 91 hhcurveto
            return
          </CharString>
          <CharString index="337">
            -99 vhcurveto
            -208 -69 -112 -126 -167 vvcurveto
            -215 return
          </CharString>
          <CharString index="338">
            vhcurveto
            -768 vlineto
            -138 57 -90 141 200 vvcurveto
            endchar
          </CharString>
          <CharString index="339">
            vlineto
            -122 -159 rlineto
            -60 vlineto
            3 10 18 2 17 hhcurveto
            return
          </CharString>
        <CharString name=".notdef">
          2048 130 -494 rmoveto
          217 callsubr
          150 2444 -150 hlineto
          409 -2444 rmoveto
          217 callsubr
          217 callsubr
          149 2444 -149 hlineto
          endchar
        </CharString>
        <CharString name=".null">
          0 endchar
        </CharString>
        <CharString name="A">
          1438 1243 268 -97 callsubr
        </CharString>
        <CharString name="AE">
          1963 1825 1444 147 callsubr
        </CharString>
        <CharString name="AEacute">
          1963 1224 -74 callsubr
          686 -110 147 callsubr
        </CharString>
        <CharString name="AEmacron">
          1963 987 87 callsubr
          838 -296 147 callsubr
        </CharString>
        <CharString name="Aacute">
          1438 684 -74 callsubr
          644 -1286 -97 callsubr
        </CharString>
        <CharString name="Abreve">
          1438 716 21 callsubr
          60 callsubr
          527 -1321 -97 callsubr
        </CharString>
        <CharString name="Abreveacute">
          1438 1000 79 callsubr
          284 -238 -1 callsubr
          -88 -37 -117 65 callsubr
          527 -1262 -97 callsubr
        </CharString>
        <CharString name="Abrevecyrillic">
          1438 716 1589 rmoveto
          189 120 204 callsubr
          527 -1321 -97 callsubr
        </CharString>
        <CharString name="Abrevedotbelow">
          1438 716 21 callsubr
          60 callsubr
          527 -1321 rmoveto
          -12 callsubr
          56 callsubr
          -189 -768 -79 callsubr
          8 callsubr
        </CharString>
        <CharString name="Abrevegrave">
          1438 432 78 callsubr
          284 -446 -1 callsubr
          -88 -37 -117 65 callsubr
          527 -1262 -97 callsubr
        </CharString>
        <CharString name="Abrevehookabove">
          1438 709 1972 rmoveto
          -78 -64 -27 -28 -36 hvcurveto
          -51 vlineto
          13 25 47 13 47 hhcurveto
          64 -2 callgsubr
          -88 -37 -117 65 callsubr
          527 -1262 -97 callsubr
        </CharString>
        <CharString name="Abrevetilde">
          1438 836 1794 rmoveto
          95 70 54 113 -1 hvcurveto
          -76 hlineto
          -45 -1 -27 74 callgsubr
          76 hlineto
          45 1 27 18 43 hhcurveto
          27 27 -6 -13 39 hvcurveto
          32 -10 rlineto
          -14 43 42 -9 47 hhcurveto
          -120 -264 -1 callsubr
          -88 -37 -117 65 callsubr
          527 -1262 -97 callsubr
        </CharString>
        <CharString name="Acaron">
          1438 931 -19 callsubr
          -105 callgsubr
          229 -1576 -97 callsubr
        </CharString>
        <CharString name="Acircumflex">
          1438 523 -33 callsubr
          -35 callsubr
          -44 callsubr
          803 -1286 -97 callsubr
        </CharString>
        <CharString name="Acircumflexacute">
          1438 1000 123 callsubr
          811 -1287 -97 callsubr
        </CharString>
        <CharString name="Acircumflexdotbelow">
          1438 523 -33 callsubr
          -35 callsubr
          -44 callsubr
          803 -1286 rmoveto
          -12 callsubr
          56 callsubr
          -189 -768 -79 callsubr
          8 callsubr
        </CharString>
        <CharString name="Acircumflexgrave">
          1438 432 122 callsubr
          811 -1287 -97 callsubr
        </CharString>
        <CharString name="Acircumflexhookabove">
          1438 952 1927 rmoveto
          -74 -80 callgsubr
          -33 -23 -72 -65 callgsubr
          -41 callgsubr
          811 -1287 -97 callsubr
        </CharString>
        <CharString name="Acircumflextilde">
          1438 836 157 callsubr
          27 27 -7 -12 39 hvcurveto
          64 callgsubr
          811 -1287 -97 callsubr
        </CharString>
        <CharString name="Acyrillic">
          1438 1243 268 -97 callsubr
        </CharString>
        <CharString name="Adblgrave">
          1438 519 118 callsubr
          307 -1285 -97 callsubr
        </CharString>
        <CharString name="Adieresis">
          1438 546 1586 rmoveto
          63 -70 callsubr
          -48 callsubr
          -57 callgsubr
          357 -1318 -97 callsubr
        </CharString>
        <CharString name="Adieresismacron">
          1438 431 -103 callgsubr
          131 -368 -47 callsubr
          -55 callsubr
          -57 callsubr
          -42 callsubr
          94 callsubr
          374 -1286 -97 callsubr
        </CharString>
        <CharString name="Adotaccent">
          1438 716 -68 callsubr
          -46 callsubr
          527 -1317 -97 callsubr
        </CharString>
        <CharString name="Adotbelow">
          1438 1243 268 rmoveto
          -12 callsubr
          56 callsubr
          -189 -768 -79 callsubr
          8 callsubr
        </CharString>
        <CharString name="Adotmacron">
          1438 431 162 callsubr
          527 -1279 -97 callsubr
        </CharString>
        <CharString name="Agrave">
          1438 769 134 callsubr
          797 -1562 -97 callsubr
        </CharString>
        <CharString name="Ahookabove">
          1438 742 133 callsubr
          501 -1616 -97 callsubr
        </CharString>
        <CharString name="Ainvertedbreve">
          1438 716 160 callsubr
          527 -1624 -97 callsubr
        </CharString>
        <CharString name="Alphagreek">
          1438 1243 268 -97 callsubr
        </CharString>
        <CharString name="Alphatonosgreek">
          1438 1243 268 rmoveto
          -12 callsubr
          601 68 vlineto
          -116 16 -31 30 -57 154 rrcurveto
          -992 807 139 callsubr
          253 -492 rmoveto
          215 626 219 -626 rlineto
          endchar
        </CharString>
        <CharString name="Amacron">
          1438 446 2 callsubr
          797 -1472 -97 callsubr
        </CharString>
        <CharString name="Aogonek">
          1438 1171 -486 rmoveto
          85 74 36 51 32 hvcurveto
          61 callgsubr
          247 68 hlineto
          -116 16 -31 30 -57 154 rrcurveto
          -12 callsubr
          281 vlineto
          -96 -79 -68 -106 -106 vvcurveto
          -120 91 -75 117 vhcurveto
          -750 1069 rmoveto
          215 626 219 -626 rlineto
          endchar
        </CharString>
        <CharString name="Aring">
          1438 467 1744 -11 callgsubr
          55 41 -47 -69 -69 -41 -47 -55 -55 -40 47 69 vhcurveto
          623 -1476 -97 callsubr
        </CharString>
        <CharString name="Aringacute">
          1438 1000 1830 -30 callgsubr
          199 callsubr
          502 -1302 -97 callsubr
        </CharString>
        <CharString name="Aringbelow">
          1438 1243 268 rmoveto
          -12 callsubr
          56 callsubr
          -464 -879 rmoveto
          -111 122 -73 153 154 122 73 112 110 -122 74 -154 -153 -122 -74 -111 vhcurveto
          169 hmoveto
          68 45 46 61 62 45 -46 -67 -69 -45 -45 -62 -61 -45 46 67 vhcurveto
          endchar
        </CharString>
        <CharString name="Atilde">
          1438 834 71 callsubr
          114 callsubr
          409 -1299 -97 callsubr
        </CharString>
        <CharString name="B">
          1394 1307 419 110 callsubr
        </CharString>
        <CharString name="Bdotaccent">
          1394 700 -68 callsubr
          -46 callsubr
          607 -1166 110 callsubr
        </CharString>
        <CharString name="Bdotbelow">
          198 callsubr
          -324 -586 -79 callsubr
          -65 callsubr
        </CharString>
        <CharString name="Becyrillic">
          1330 1257 419 rmoveto
          246 -201 161 -384 vhcurveto
          -187 538 hlineto
          218 -7 250 -8 72 -43 52 -221 rlinecurve
          63 hlineto
          -12 359 rlineto
          -1066 -68 hlineto
          140 -17 18 -20 -89 vvcurveto
          -1056 vlineto
          -89 -18 -20 -140 -17 vhcurveto
          -68 611 vlineto
          366 218 166 253 hvcurveto
          -283 -5 rmoveto
          -205 -122 -116 -253 -8 vhcurveto
          -114 -3 0 659 114 -3 rlineto
          249 -9 126 -118 -197 vvcurveto
          endchar
        </CharString>
        <CharString name="Betagreek">
          1394 1307 419 110 callsubr
        </CharString>
        <CharString name="Blinebelow">
          198 callsubr
          -602 -760 -34 callsubr
        </CharString>
        <CharString name="C">
          1437 98 725 -6 callsubr
          -27 callsubr
        </CharString>
        <CharString name="Cacute">
          1437 814 72 callsubr
          -631 -829 -6 callsubr
          -27 callsubr
        </CharString>
        <CharString name="Ccaron">
          1437 1061 -19 callsubr
          88 callsubr
          -1046 -1119 -6 callsubr
          -27 callsubr
        </CharString>
        <CharString name="Ccedilla">
          1437 98 725 rmoveto
          -451 318 -281 400 -19 vhcurveto
          -104 -133 -55 callgsubr
          -51 -29 -65 -52 -54 16 22 -34 callgsubr
          -4 callsubr
          61 81 rlineto
          185 7 170 53 78 57 12 336 rcurveline
          -32 callgsubr
          -27 callsubr
        </CharString>
        <CharString name="Ccedillaacute">
          1437 814 72 callsubr
          -631 -829 rmoveto
          -451 318 -281 400 -19 vhcurveto
          -104 -133 -55 callgsubr
          -51 -29 -65 -52 -54 16 22 -34 callgsubr
          -4 callsubr
          61 81 rlineto
          185 7 170 53 78 57 12 336 rcurveline
          -32 callgsubr
          -27 callsubr
        </CharString>
        <CharString name="Ccircumflex">
          1437 652 28 callsubr
          -210 283 -44 callsubr
          -472 -829 -6 callsubr
          -27 callsubr
        </CharString>
        <CharString name="Cdotaccent">
          1437 845 67 callsubr
          -747 -860 -6 callsubr
          -27 callsubr
        </CharString>
        <CharString name="Checyrillic">
          1581 1361 -31 callsubr
          140 17 vhcurveto
          68 -573 -92 callgsubr
          -539 vlineto
          -32 -81 -102 -16 -112 hhcurveto
          -236 -105 121 246 hvcurveto
          220 vlineto
          86 17 18 133 17 vhcurveto
          68 -565 -92 callgsubr
          -218 vlineto
          -322 204 -152 328 144 134 28 40 91 vhcurveto
          -424 vlineto
          -96 -21 -26 -153 -17 vhcurveto
          -68 597 68 vlineto
          -140 17 -18 20 89 vvcurveto
          endchar
        </CharString>
        <CharString name="Chigreek">
          1402 282 290 47 callsubr
        </CharString>
        <CharString name="D">
          1572 29 callsubr
          endchar
        </CharString>
        <CharString name="Dbar">
          1572 62 698 rmoveto
          159 -504 hlineto
          -89 45 callsubr
          592 vlineto
          448 383 278 467 446 -350 253 -487 hvcurveto
          -586 -75 callsubr
          -468 -159 vlineto
          1131 -56 138 callsubr
          rlineto
          619 310 84 -310 583 vlineto
          218 callsubr
          endchar
        </CharString>
        <CharString name="Dcaron">
          1572 964 -19 callsubr
          88 callsubr
          438 -1099 109 callsubr
          endchar
        </CharString>
        <CharString name="Dcircumflexbelow">
          1572 29 callsubr
          -669 -1188 5 callsubr
          -217 333 -139 0 -217 -333 rlineto
          endchar
        </CharString>
        <CharString name="Dcommaaccent">
          1572 29 callsubr
          -476 -1202 33 callsubr
          -87 69 -124 -16 callsubr
          -71 callsubr
          177 callsubr
        </CharString>
        <CharString name="Ddotaccent">
          1572 749 -68 callsubr
          -93 callgsubr
          736 -840 109 callsubr
          endchar
        </CharString>
        <CharString name="Ddotbelow">
          1572 29 callsubr
          -463 -911 -79 callsubr
          8 callsubr
        </CharString>
        <CharString name="Decyrillic">
          1513 1455 86 rmoveto
          -193 1150 hlineto
          98 21 25 150 17 vhcurveto
          68 -1236 -68 vlineto
          156 -19 34 -25 -5 -138 rrcurveto
          -10 -270 -14 -390 -49 -282 -127 -166 rlinecurve
          -152 hlineto
          -8 -403 rlineto
          75 hlineto
          274 63 92 43 250 hhcurveto
          485 hlineto
          261 80 -57 -260 60 hvcurveto
          75 hlineto
          -466 403 rmoveto
          -688 hlineto
          109 167 47 265 13 406 16 434 rcurveline
          503 hlineto
          endchar
        </CharString>
        <CharString name="Deltagreek">
          1330 45 hmoveto
          1240 131 hlineto
          -528 1315 -184 0 -528 -1313 rlineto
          128 46 rmoveto
          413 1050 402 -1050 rlineto
          endchar
        </CharString>
        <CharString name="Djecyrillic">
          1728 -37 callsubr
          -17 callgsubr
          466 vlineto
          34 59 87 21 94 hhcurveto
          212 131 -138 -276 1 hvcurveto
          1 -274 -109 -223 -194 -135 34 -56 rcurveline
          320 145 213 252 319 vvcurveto
          325 -209 173 -298 -148 -121 -37 -44 -73 vhcurveto
          614 212 callsubr
        </CharString>
        <CharString name="Dlinebelow">
          1572 29 callsubr
          -741 -1085 -20 callsubr
        </CharString>
        <CharString name="Dzecyrillic">
          1209 583 -27 103 callsubr
          endchar
        </CharString>
        <CharString name="Dzhecyrillic">
          1641 1421 1250 rmoveto
          89 19 20 140 17 vhcurveto
          68 -574 -68 vlineto
          130 -17 20 -18 -86 vvcurveto
          -1169 -671 1169 vlineto
          86 20 18 131 17 vhcurveto
          68 -574 -40 callsubr
          -107 callsubr
          551 vlineto
          104 23 -27 -286 44 hvcurveto
          74 hlineto
          286 44 23 27 103 hhcurveto
          552 68 hlineto
          11 callsubr
          endchar
        </CharString>
        <CharString name="E">
          1287 1155 1444 -90 callsubr
        </CharString>
        <CharString name="Eacute">
          1287 629 -74 callsubr
          611 -110 -90 callsubr
        </CharString>
        <CharString name="Ebreve">
          1287 661 21 callsubr
          60 callsubr
          494 -145 -90 callsubr
        </CharString>
        <CharString name="Ecaron">
          1287 876 -19 callsubr
          -105 callgsubr
          196 -400 -90 callsubr
        </CharString>
        <CharString name="Ecedilla">
          1287 635 -476 rmoveto
          125 44 callsubr
          -97 callgsubr
          78 104 rlineto
          3 478 vlineto
          -29 callsubr
          -12 367 rlineto
          -36 callsubr
          17 callgsubr
        </CharString>
        <CharString name="Ecedillabreve">
          1287 661 21 callsubr
          60 callsubr
          -26 -2065 rmoveto
          125 44 callsubr
          -97 callgsubr
          78 104 rlineto
          3 478 vlineto
          -29 callsubr
          -12 367 rlineto
          -36 callsubr
          17 callgsubr
        </CharString>
        <CharString name="Ecircumflex">
          1287 468 -33 callsubr
          -35 callsubr
          -44 callsubr
          770 -110 -90 callsubr
        </CharString>
        <CharString name="Ecircumflexacute">
          1287 945 123 callsubr
          778 -111 -90 callsubr
        </CharString>
        <CharString name="Ecircumflexbelow">
          1287 1155 1444 rmoveto
          -36 callsubr
          1139 vlineto
          -29 callsubr
          -707 -1539 5 callsubr
          -217 333 -139 0 -217 -333 rlineto
          endchar
        </CharString>
        <CharString name="Ecircumflexdotbelow">
          1287 468 -33 callsubr
          -35 callsubr
          -44 callsubr
          770 -110 rmoveto
          -36 callsubr
          1139 vlineto
          -29 callsubr
          -500 -1262 -3 callsubr
        </CharString>
        <CharString name="Ecircumflexgrave">
          1287 377 122 callsubr
          778 -111 -90 callsubr
        </CharString>
        <CharString name="Ecircumflexhookabove">
          1287 897 1927 rmoveto
          -74 -80 callgsubr
          -33 -23 -72 -65 callgsubr
          -41 callgsubr
          778 -111 -90 callsubr
        </CharString>
        <CharString name="Ecircumflextilde">
          1287 781 157 callsubr
          27 27 -7 -12 39 hvcurveto
          64 callgsubr
          778 -111 -90 callsubr
        </CharString>
        <CharString name="Ecyrillic">
          1461 98 725 -6 callsubr
          -285 -186 268 357 -17 hvcurveto
          674 -8 0 102 -674 -8 rlineto
          356 10 177 237 299 hhcurveto
          -7 callgsubr
        </CharString>
        <CharString name="Edblgrave">
          1287 464 118 callsubr
          274 -109 -90 callsubr
        </CharString>
        <CharString name="Edieresis">
          1287 491 22 callsubr
          -70 callsubr
          -48 callsubr
          324 -142 -90 callsubr
        </CharString>
        <CharString name="Edotaccent">
          1287 661 -68 callsubr
          -46 callsubr
          494 -141 -90 callsubr
        </CharString>
        <CharString name="Edotbelow">
          1287 1155 1444 rmoveto
          -36 callsubr
          1139 vlineto
          -29 callsubr
          -500 -1262 -3 callsubr
        </CharString>
        <CharString name="Efcyrillic">
          1893 73 718 rmoveto
          -303 292 -185 457 -13 vhcurveto
          -36 vlineto
          -98 -22 -25 -150 -17 vhcurveto
          -68 593 68 vlineto
          -150 17 -21 25 98 vvcurveto
          36 vlineto
          463 13 285 185 306 vvcurveto
          296 -258 197 -490 12 vhcurveto
          37 vlineto
          98 21 25 150 17 vhcurveto
          68 -593 -68 vlineto
          150 -17 22 -25 -98 vvcurveto
          -37 vlineto
          -498 -12 -251 -196 -300 vvcurveto
          282 8 rmoveto
          214 129 182 338 17 vhcurveto
          -834 vlineto
          -322 17 -145 186 218 vvcurveto
          1183 -4 rmoveto
          -216 -143 -184 -323 -17 vhcurveto
          833 vlineto
          335 -16 131 -184 -216 vvcurveto
          endchar
        </CharString>
        <CharString name="Egrave">
          1287 714 134 callsubr
          764 -386 -90 callsubr
        </CharString>
        <CharString name="Ehookabove">
          1287 687 133 callsubr
          468 -440 -90 callsubr
        </CharString>
        <CharString name="Einvertedbreve">
          1287 661 160 callsubr
          494 -448 -90 callsubr
        </CharString>
        <CharString name="Elcyrillic">
          1511 43 callgsubr
          496 -1164 hlineto
          -89 -21 -20 -138 -17 vhcurveto
          -68 582 68 vlineto
          -138 17 -21 20 89 vvcurveto
          -66 callsubr
          -1216 -68 vlineto
          158 -18 31 -34 10 callgsubr
          endchar
        </CharString>
        <CharString name="Emacron">
          1287 391 2 callsubr
          764 -296 -90 callsubr
        </CharString>
        <CharString name="Emacronacute">
          1287 945 79 callsubr
          -23 callgsubr
          779 -241 -90 callsubr
        </CharString>
        <CharString name="Emacrongrave">
          1287 377 78 callsubr
          -24 callgsubr
          779 -241 -90 callsubr
        </CharString>
        <CharString name="Emcyrillic">
          1865 517 1444 49 callsubr
        </CharString>
        <CharString name="Encyrillic">
          0 callsubr
          -66 callsubr
          -58 callsubr
          -53 callsubr
          -39 callsubr
        </CharString>
        <CharString name="Eogonek">
          1287 1024 58 callgsubr
          79 108 68 19 65 31 41 hvcurveto
          147 hlineto
          -29 callsubr
          -12 367 rlineto
          -36 callsubr
          918 vlineto
          -95 -79 -68 -106 -106 vvcurveto
          -120 90 -75 117 vhcurveto
          endchar
        </CharString>
        <CharString name="Epsilongreek">
          1287 1155 1444 -90 callsubr
        </CharString>
        <CharString name="Epsilontonosgreek">
          1593 1461 1444 rmoveto
          -36 callsubr
          1139 vlineto
          15 410 rlineto
          -64 hlineto
          -54 -271 -71 -40 -285 -11 rrcurveto
          -257 -9 0 621 263 -3 93 -1 26 -38 29 -163 rlinecurve
          60 488 -60 hlineto
          -34 -165 -23 -35 -91 -2 rrcurveto
          -263 -2 0 586 241 -8 249 -10 77 -49 52 -221 rlinecurve
          64 hlineto
          -1390 -2 139 callsubr
          endchar
        </CharString>
        <CharString name="Ercyrillic">
          1345 1258 1019 50 callsubr
        </CharString>
        <CharString name="Ereversedcyrillic">
          1467 126 94 rmoveto
          -64 89 197 -57 190 hhcurveto
          428 339 285 481 458 -319 274 -445 -214 -171 -49 -62 -86 hvcurveto
          -12 -308 rlineto
          64 hlineto
          227 55 138 96 207 hhcurveto
          290 184 -231 -363 16 hvcurveto
          -670 8 0 -102 671 7 rlineto
          -362 -12 -194 -263 -288 hhcurveto
          -195 -153 80 252 -58 hvcurveto
          -63 hlineto
          endchar
        </CharString>
        <CharString name="Escyrillic">
          1437 98 725 -6 callsubr
          -27 callsubr
        </CharString>
        <CharString name="Etagreek">
          0 callsubr
          -66 callsubr
          -58 callsubr
          -53 callsubr
          -39 callsubr
        </CharString>
        <CharString name="Etatonosgreek">
          1958 791 189 rmoveto
          506 682 -506 161 callsubr
          -474 -682 473 6 callsubr
          -107 callsubr
          -51 callsubr
          -707 886 139 callsubr
          endchar
        </CharString>
        <CharString name="Etilde">
          1287 779 71 callsubr
          114 callsubr
          376 -123 -90 callsubr
        </CharString>
        <CharString name="Etildebelow">
          1287 1155 1444 rmoveto
          -36 callsubr
          1139 vlineto
          -29 callsubr
          -386 -1497 rmoveto
          92 74 70 183 -3 hvcurveto
          -72 hlineto
          -88 -4 -22 -30 -39 32 callgsubr
          72 hlineto
          89 4 22 30 39 -75 callgsubr
        </CharString>
        <CharString name="F">
          1185 1124 1444 rmoveto
          -1062 -75 callsubr
          -107 callsubr
          -17 callsubr
          205 callsubr
        </CharString>
        <CharString name="Fdotaccent">
          1185 651 -68 callsubr
          -64 -52 -48 -63 -63 51 -48 65 hvcurveto
          473 -141 rmoveto
          -1062 -75 callsubr
          -107 callsubr
          -17 callsubr
          205 callsubr
        </CharString>
        <CharString name="G">
          1562 98 724 -13 callsubr
        </CharString>
        <CharString name="Gacute">
          1562 808 -49 callsubr
          36 callsubr
          -626 -830 -13 callsubr
        </CharString>
        <CharString name="Gammagreek">
          1174 1109 1444 rmoveto
          -1047 -75 callsubr
          -107 callsubr
          -17 callsubr
          1157 vlineto
          198 -7 247 -8 77 -47 50 -218 rlinecurve
          64 hlineto
          endchar
        </CharString>
        <CharString name="Gbreve">
          1562 840 84 callgsubr
          211 callsubr
          107 callgsubr
          -742 -865 -13 callsubr
        </CharString>
        <CharString name="Gcaron">
          1562 1056 141 callsubr
          -86 0 210 -29 callgsubr
          -1041 -1120 -13 callsubr
        </CharString>
        <CharString name="Gcircumflex">
          1562 647 28 callsubr
          -47 callgsubr
          -467 -830 -13 callsubr
        </CharString>
        <CharString name="Gcommaaccent">
          1562 98 724 rmoveto
          -462 339 -289 423 204 202 56 81 115 vhcurveto
          388 vlineto
          90 17 17 139 14 vhcurveto
          68 -566 -68 vlineto
          154 -15 16 -16 -89 vvcurveto
          -362 vlineto
          -42 -57 -91 -25 -111 hhcurveto
          -300 -190 295 382 375 178 252 310 213 135 -110 -235 56 hvcurveto
          64 hlineto
          -12 335 rlineto
          61 -85 -166 46 -225 hhcurveto
          -429 -333 -274 -473 hvcurveto
          744 -1200 rmoveto
          146 96 -21 callsubr
          -62 86 callsubr
          62 -1 49 -28 -49 vvcurveto
          -51 -49 -29 -66 -64 callgsubr
        </CharString>
        <CharString name="Gdotaccent">
          1562 840 67 callsubr
          -742 -861 -13 callsubr
        </CharString>
        <CharString name="Geacutecyrillic">
          1174 593 -74 callsubr
          601 -110 rmoveto
          -1047 -75 callsubr
          -107 callsubr
          -17 callsubr
          57 callgsubr
        </CharString>
        <CharString name="Gecyrillic">
          1174 1109 1444 rmoveto
          -1047 -75 callsubr
          -107 callsubr
          -17 callsubr
          57 callgsubr
        </CharString>
        <CharString name="Germandbls">
          1485 485 hmoveto
          1365 vlineto
          207 -8 rlineto
          279 -10 118 -118 -156 vvcurveto
          -136 -85 -91 -157 -24 vhcurveto
          -157 vlineto
          204 -52 120 -126 -178 vvcurveto
          -156 -87 -86 -120 -135 -101 113 195 -34 vhcurveto
          -64 -319 hlineto
          -42 59 126 -41 152 hhcurveto
          212 220 133 265 225 -127 169 -205 66 hvcurveto
          153 20 121 102 152 vvcurveto
          205 -177 134 -398 vhcurveto
          -704 -68 hlineto
          140 -17 18 -19 -90 vvcurveto
          -1056 vlineto
          -90 -18 -19 -140 -17 vhcurveto
          -68 vlineto
          endchar
        </CharString>
        <CharString name="Geupturncyrillic">
          1144 1081 1358 rmoveto
          10 400 rlineto
          -75 hlineto
          -281 -80 -45 -33 -220 hhcurveto
          -609 -75 callsubr
          -107 callsubr
          -17 callsubr
          1150 vlineto
          endchar
        </CharString>
        <CharString name="Gmacron">
          1562 571 87 callsubr
          -473 -1016 -13 callsubr
        </CharString>
        <CharString name="H">
          0 callsubr
          -66 callsubr
          -58 callsubr
          -53 callsubr
          -39 callsubr
        </CharString>
        <CharString name="Hacyrillic">
          1402 282 290 47 callsubr
        </CharString>
        <CharString name="Hardsigncyrillic">
          1582 1499 170 callsubr
          152 17 vhcurveto
          68 -840 vlineto
          -12 -359 rlineto
          64 hlineto
          42 225 65 42 236 9 rrcurveto
          8 -1155 hlineto
          -96 -21 -25 -150 -17 vhcurveto
          -68 644 vlineto
          369 194 200 246 hvcurveto
          -282 -9 rmoveto
          -212 -113 -131 -244 118 callgsubr
          133 -127 -222 vvcurveto
          endchar
        </CharString>
        <CharString name="Hbar">
          0 callsubr
          846 159 84 -159 126 vlineto
          90 21 19 138 17 vhcurveto
          68 -58 callsubr
          -131 -681 130 6 callsubr
          -126 -159 -84 159 -846 -89 callgsubr
          -51 callsubr
          592 vmoveto
          259 681 -259 vlineto
          endchar
        </CharString>
        <CharString name="Hbrevebelow">
          0 callsubr
          -66 callsubr
          -58 callsubr
          -53 callsubr
          -51 callsubr
          343 -640 rmoveto
          182 99 128 133 18 -1 17 -3 15 hvcurveto
          -72 -7 hlineto
          -89 -79 -68 -126 -127 -78 42 callgsubr
        </CharString>
        <CharString name="Hcaron">
          1652 1043 -19 callsubr
          88 callsubr
          -641 -1655 57 callsubr
          -66 callsubr
          -58 callsubr
          -53 callsubr
          -39 callsubr
        </CharString>
        <CharString name="Hcedilla">
          0 callsubr
          -66 callsubr
          -58 callsubr
          -53 callsubr
          254 vlineto
          -122 -159 -73 callgsubr
          229 callsubr
          124 44 callsubr
          -97 callgsubr
          79 107 rlineto
          233 68 hlineto
          -131 17 -20 18 86 vvcurveto
          endchar
        </CharString>
        <CharString name="Hcircumflex">
          1652 635 1553 33 callgsubr
          -67 -1364 57 callsubr
          -66 callsubr
          -58 callsubr
          -53 callsubr
          -39 callsubr
        </CharString>
        <CharString name="Hdieresis">
          1652 658 1586 rmoveto
          62 -70 callsubr
          -62 76 callgsubr
          -513 -1397 57 callsubr
          -66 callsubr
          -58 callsubr
          -53 callsubr
          -39 callsubr
        </CharString>
        <CharString name="Hdotaccent">
          1652 828 1585 rmoveto
          64 51 48 63 63 -51 47 -64 -65 -51 -47 -63 -63 51 -48 65 hvcurveto
          -343 -1396 57 callsubr
          -66 callsubr
          -58 callsubr
          -53 callsubr
          -39 callsubr
        </CharString>
        <CharString name="Hdotbelow">
          0 callsubr
          -66 callsubr
          -58 callsubr
          -53 callsubr
          -51 callsubr
          343 -374 -3 callsubr
        </CharString>
        <CharString name="I">
          706 485 -31 callsubr
          -99 callsubr
          -105 callsubr
          -107 callsubr
          -78 callsubr
        </CharString>
        <CharString name="IAcyrillic">
          1401 148 1028 rmoveto
          -200 140 -115 177 -39 vhcurveto
          -209 -340 -128 -207 -32 -40 -70 -23 rlinecurve
          -64 300 vlineto
          382 637 rlineto
          195 -448 hlineto
          -85 -17 -18 -133 -18 vhcurveto
          -68 574 68 vlineto
          -138 18 -21 20 88 vvcurveto
          1055 vlineto
          90 21 20 138 16 vhcurveto
          69 -632 vlineto
          -355 -192 -161 -255 hvcurveto
          271 16 rmoveto
          200 118 109 235 8 vhcurveto
          131 4 0 -649 -129 1 rlineto
          -211 3 -144 119 205 vvcurveto
          endchar
        </CharString>
        <CharString name="IJ">
          1412 485 -31 callsubr
          -99 callsubr
          -105 callsubr
          -107 callsubr
          89 callsubr
          706 64 -15 callsubr
          -99 callsubr
          140 -17 18 -20 -89 vvcurveto
          -965 vlineto
          -327 -73 -152 -217 -144 vhcurveto
          -25 callgsubr
        </CharString>
        <CharString name="IJacute">
          1412 321 -74 callsubr
          790 hmoveto
          320 276 rlineto
          8 -257 vlineto
          -148 -284 rlineto
          -456 -1360 -77 callsubr
          -99 callsubr
          -105 callsubr
          -107 callsubr
          89 callsubr
          706 64 -15 callsubr
          -99 callsubr
          140 -17 18 -20 -89 vvcurveto
          -965 vlineto
          -327 -73 -152 -217 -144 vhcurveto
          -25 callgsubr
        </CharString>
        <CharString name="IUcyrillic">
          2298 485 189 rmoveto
          506 247 vlineto
          -451 13 343 -271 376 hhcurveto
          446 290 328 422 1 hvcurveto
          467 -350 281 -383 -425 -283 -297 -393 -26 vhcurveto
          -249 473 hlineto
          144 callsubr
          -105 callsubr
          -107 callsubr
          -51 callsubr
          993 -119 rmoveto
          -282 -172 293 376 361 125 274 305 281 175 -292 -376 -1 hvcurveto
          -361 -1 -125 -275 -305 hhcurveto
          endchar
        </CharString>
        <CharString name="Iacute">
          706 321 -74 callsubr
          249 -1360 -77 callsubr
          -99 callsubr
          -105 callsubr
          -107 callsubr
          -78 callsubr
        </CharString>
        <CharString name="Ibreve">
          706 353 21 callsubr
          60 callsubr
          132 -1395 -77 callsubr
          -99 callsubr
          -105 callsubr
          -107 callsubr
          -78 callsubr
        </CharString>
        <CharString name="Icaron">
          706 568 -19 callsubr
          -105 callgsubr
          -166 -1650 -77 callsubr
          -99 callsubr
          -105 callsubr
          -107 callsubr
          -78 callsubr
        </CharString>
        <CharString name="Icircumflex">
          706 160 -33 callsubr
          -35 callsubr
          -44 callsubr
          408 -1360 -77 callsubr
          -99 callsubr
          -105 callsubr
          -107 callsubr
          -78 callsubr
        </CharString>
        <CharString name="Icyrillic">
          706 485 -31 callsubr
          -99 callsubr
          -105 callsubr
          -107 callsubr
          -78 callsubr
        </CharString>
        <CharString name="Idblgrave">
          706 156 118 callsubr
          -88 -1359 -77 callsubr
          -99 callsubr
          -105 callsubr
          -107 callsubr
          -78 callsubr
        </CharString>
        <CharString name="Idieresis">
          706 183 22 callsubr
          -70 callsubr
          -48 callsubr
          -38 -1392 -77 callsubr
          -99 callsubr
          -105 callsubr
          -107 callsubr
          -78 callsubr
        </CharString>
        <CharString name="Idieresisacute">
          706 637 35 callsubr
          130 -214 -47 callsubr
          -55 callsubr
          -57 callsubr
          -42 callsubr
          94 callsubr
          -21 -1360 -77 callsubr
          -99 callsubr
          -105 callsubr
          -107 callsubr
          -78 callsubr
        </CharString>
        <CharString name="Idotaccent">
          706 353 -68 callsubr
          -93 callgsubr
          132 -1391 -77 callsubr
          -99 callsubr
          -105 callsubr
          -107 callsubr
          -78 callsubr
        </CharString>
        <CharString name="Idotbelow">
          706 485 -31 callsubr
          -99 callsubr
          -105 callsubr
          -107 callsubr
          89 callsubr
          -132 -379 -79 callsubr
          -65 callsubr
        </CharString>
        <CharString name="Iecyrillic">
          1287 1155 1444 -90 callsubr
        </CharString>
        <CharString name="Igrave">
          706 406 134 callsubr
          402 -1636 -77 callsubr
          -99 callsubr
          -105 callsubr
          -107 callsubr
          -78 callsubr
        </CharString>
        <CharString name="Ihookabove">
          706 379 133 callsubr
          106 -1690 -77 callsubr
          -99 callsubr
          -105 callsubr
          -107 callsubr
          -78 callsubr
        </CharString>
        <CharString name="Iicyrillic">
          1676 485 189 rmoveto
          45 vlineto
          706 847 rlineto
          -892 161 callsubr
          -45 vlineto
          -706 -846 rlineto
          890 6 callsubr
          -107 callsubr
          -39 callsubr
        </CharString>
        <CharString name="Iinvertedbreve">
          706 353 160 callsubr
          132 -1698 -77 callsubr
          -99 callsubr
          -105 callsubr
          -107 callsubr
          -78 callsubr
        </CharString>
        <CharString name="Iishortcyrillic">
          1676 838 -9 callgsubr
          -41 hvcurveto
          47 62 callgsubr
          -353 -1400 rmoveto
          45 vlineto
          706 847 rlineto
          -892 161 callsubr
          -45 vlineto
          -706 -846 rlineto
          890 6 callsubr
          -107 callsubr
          -39 callsubr
        </CharString>
        <CharString name="Imacron">
          706 83 2 callsubr
          402 -1546 -77 callsubr
          -99 callsubr
          -105 callsubr
          -107 callsubr
          -78 callsubr
        </CharString>
        <CharString name="Iocyrillic">
          1287 491 22 callsubr
          -70 callsubr
          -48 callsubr
          324 -142 -90 callsubr
        </CharString>
        <CharString name="Iogonek">
          706 485 -31 callsubr
          -99 callsubr
          -105 callsubr
          -107 callsubr
          269 vlineto
          -95 -79 -68 -106 -106 vvcurveto
          -120 91 -75 116 86 74 36 51 32 vhcurveto
          61 callgsubr
          239 68 hlineto
          -141 17 -18 20 89 vvcurveto
          endchar
        </CharString>
        <CharString name="Iotadieresisgreek">
          706 183 22 callsubr
          -70 callsubr
          -48 callsubr
          -38 -1392 -77 callsubr
          -99 callsubr
          -105 callsubr
          -107 callsubr
          -78 callsubr
        </CharString>
        <CharString name="Iotagreek">
          706 485 -31 callsubr
          -99 callsubr
          -105 callsubr
          -107 callsubr
          -78 callsubr
        </CharString>
        <CharString name="Iotatonosgreek">
          1012 791 -56 callgsubr
          -582 -40 callsubr
          -107 callsubr
          582 68 vlineto
          11 callsubr
          -707 881 139 callsubr
          endchar
        </CharString>
        <CharString name="Itilde">
          706 471 71 callsubr
          114 callsubr
          14 -1373 -77 callsubr
          -99 callsubr
          -105 callsubr
          -107 callsubr
          -78 callsubr
        </CharString>
        <CharString name="Itildebelow">
          706 485 -31 callsubr
          -99 callsubr
          -105 callsubr
          -107 callsubr
          89 callsubr
          -18 -614 rmoveto
          92 75 40 callsubr
          -4 -21 -30 -40 32 callgsubr
          219 callsubr
          28 -21 rlineto
          -35 48 42 -23 55 hhcurveto
          endchar
        </CharString>
        <CharString name="J">
          706 485 258 -15 callsubr
          -99 callsubr
          -105 callsubr
          129 callsubr
        </CharString>
        <CharString name="Jacute">
          706 321 72 callsubr
          249 -1296 -15 callsubr
          -99 callsubr
          -105 callsubr
          129 callsubr
        </CharString>
        <CharString name="Jcircumflex">
          706 159 28 callsubr
          -47 callgsubr
          408 -1296 -15 callsubr
          -99 callsubr
          -105 callsubr
          129 callsubr
        </CharString>
        <CharString name="Jecyrillic">
          706 485 258 -15 callsubr
          -99 callsubr
          -105 callsubr
          129 callsubr
        </CharString>
        <CharString name="K">
          1408 485 189 14 callsubr
        </CharString>
        <CharString name="Kaacutecyrillic">
          1408 725 72 callsubr
          -155 -1365 14 callsubr
        </CharString>
        <CharString name="Kacute">
          1408 725 72 callsubr
          -155 -1365 14 callsubr
        </CharString>
        <CharString name="Kacyrillic">
          1408 485 189 14 callsubr
        </CharString>
        <CharString name="Kappagreek">
          1408 485 189 14 callsubr
        </CharString>
        <CharString name="Kcaron">
          1408 972 141 callsubr
          -86 0 210 -29 callgsubr
          -570 -1655 14 callsubr
        </CharString>
        <CharString name="Kcommaaccent">
          148 callsubr
          285 -665 33 callsubr
          -88 69 -123 -16 callsubr
          -71 callsubr
          -49 -29 -66 -64 callgsubr
        </CharString>
        <CharString name="Kdotbelow">
          148 callsubr
          298 -374 -79 callsubr
          -65 callsubr
        </CharString>
        <CharString name="Klinebelow">
          148 callsubr
          20 -548 -34 callsubr
        </CharString>
        <CharString name="L">
          19 callsubr
          endchar
        </CharString>
        <CharString name="Lacute">
          1188 323 -49 callsubr
          36 callsubr
          886 -1554 rmoveto
          -2 callsubr
          15 callsubr
          endchar
        </CharString>
        <CharString name="Lambdagreek">
          1423 1223 265 rmoveto
          -418 1181 -185 0 -420 -1190 -53 -147 -38 -27 -109 -14 rlinecurve
          -68 441 68 vlineto
          -157 19 -11 41 45 138 rrcurveto
          311 942 321 -960 45 -136 -43 -26 -129 -18 rlinecurve
          -68 602 68 vlineto
          -106 15 -40 25 -56 157 rrcurveto
          endchar
        </CharString>
        <CharString name="Lcaron">
          1188 912 1120 rmoveto
          177 415 -198 0 -45 -415 rlineto
          279 -1120 rmoveto
          -2 callsubr
          15 callsubr
          endchar
        </CharString>
        <CharString name="Lcircumflexbelow">
          19 callsubr
          344 -462 5 callsubr
          -217 333 -139 0 -217 -333 rlineto
          endchar
        </CharString>
        <CharString name="Lcommaaccent">
          19 callsubr
          538 -476 33 callsubr
          -88 69 -123 -16 callsubr
          -71 callsubr
          -82 callgsubr
        </CharString>
        <CharString name="Ldot">
          19 callsubr
          848 706 78 callgsubr
          endchar
        </CharString>
        <CharString name="Ldotbelow">
          19 callsubr
          551 -185 -3 callsubr
        </CharString>
        <CharString name="Ldotbelowmacron">
          1188 86 87 callsubr
          1039 -1740 rmoveto
          -2 callsubr
          15 callsubr
          551 -185 -3 callsubr
        </CharString>
        <CharString name="Ljecyrillic">
          2082 43 callgsubr
          432 -1164 hlineto
          -89 -20 -20 -139 -17 vhcurveto
          -68 632 vlineto
          369 195 200 246 275 -215 153 -360 hvcurveto
          -197 362 hlineto
          98 21 25 151 17 vhcurveto
          68 -1166 -68 vlineto
          158 -19 31 -33 10 callgsubr
          1706 318 rmoveto
          -212 -113 -131 -243 118 callgsubr
          132 -127 -222 vvcurveto
          endchar
        </CharString>
        <CharString name="Llinebelow">
          19 callsubr
          272 -359 -20 callsubr
        </CharString>
        <CharString name="Lslash">
          1188 62 612 rmoveto
          159 47 rlineto
          -465 -89 callgsubr
          1063 vlineto
          -2 callsubr
          rrcurveto
          -199 -7 0 658 354 103 0 90 -354 -104 rlineto
          413 vlineto
          96 21 24 -43 callgsubr
          -501 vlineto
          -159 -47 rlineto
          endchar
        </CharString>
        <CharString name="M">
          1865 517 1444 49 callsubr
        </CharString>
        <CharString name="Macute">
          1865 898 -49 callsubr
          36 callsubr
          -297 -110 49 callsubr
        </CharString>
        <CharString name="Mdotaccent">
          1865 930 -78 callgsubr
          -413 -141 49 callsubr
        </CharString>
        <CharString name="Mdotbelow">
          1865 517 1444 rmoveto
          -445 -68 hlineto
          129 -18 24 -28 -3 -106 rrcurveto
          -29 -990 -5 -122 -17 -26 -136 -18 rlinecurve
          -68 428 68 vlineto
          -139 18 -16 27 1 125 rrcurveto
          5 1009 476 -1247 130 0 82 247 372 999 27 -1055 2 -88 -20 -19 -133 -16 rlinecurve
          -68 572 68 vlineto
          -139 16 -17 20 -3 90 rrcurveto
          -28 1056 -2 89 22 21 137 16 rlinecurve
          68 vlineto
          -454 1 -393 -1143 rlineto
          -91 -487 -62 callgsubr
        </CharString>
        <CharString name="Mugreek">
          1865 517 1444 49 callsubr
        </CharString>
        <CharString name="N">
          1536 -22 callsubr
          -7 callsubr
          endchar
        </CharString>
        <CharString name="Nacute">
          1536 757 -74 callsubr
          -214 -110 -11 callsubr
          -7 callsubr
          endchar
        </CharString>
        <CharString name="Ncaron">
          1536 1005 141 callsubr
          -87 0 -44 callgsubr
          -629 -400 -11 callsubr
          -7 callsubr
          endchar
        </CharString>
        <CharString name="Ncircumflexbelow">
          1536 -22 callsubr
          -7 callsubr
          -698 -731 rmoveto
          208 177 203 132 callsubr
        </CharString>
        <CharString name="Ncommaaccent">
          1536 -22 callsubr
          -7 callsubr
          -504 -745 33 callsubr
          -88 69 -123 -16 callsubr
          -71 callsubr
          -82 callgsubr
        </CharString>
        <CharString name="Ndotaccent">
          1536 789 -68 callsubr
          -46 callsubr
          -331 -141 -11 callsubr
          -7 callsubr
          endchar
        </CharString>
        <CharString name="Ndotbelow">
          1536 -22 callsubr
          -7 callsubr
          -491 -454 -79 callsubr
          -65 callsubr
        </CharString>
        <CharString name="Ngrave">
          1536 842 1554 rmoveto
          85 hlineto
          -140 283 rlineto
          -267 -7 hlineto
          -62 -386 -11 callsubr
          -7 callsubr
          endchar
        </CharString>
        <CharString name="Njecyrillic">
          2179 485 189 rmoveto
          548 575 -548 vlineto
          -86 -20 -18 -130 -17 vhcurveto
          -68 623 vlineto
          370 193 188 233 259 -213 143 -361 hvcurveto
          -197 413 hlineto
          98 21 25 151 17 vhcurveto
          68 -587 -69 vlineto
          130 -16 20 -19 -86 vvcurveto
          -430 -575 430 6 callsubr
          -107 callsubr
          -51 callsubr
          1329 223 rmoveto
          -197 -113 -122 -243 -8 vhcurveto
          -133 -3 0 657 122 -2 rlineto
          235 -1 132 -119 -205 vvcurveto
          endchar
        </CharString>
        <CharString name="Nlinebelow">
          1536 -22 callsubr
          -7 callsubr
          -769 -628 -34 callsubr
        </CharString>
        <CharString name="Ntilde">
          1536 907 119 callsubr
          -30 21 rlineto
          35 -49 -54 callgsubr
          3 64 callsubr
          -449 -123 -11 callsubr
          -7 callsubr
          endchar
        </CharString>
        <CharString name="Nugreek">
          1536 -22 callsubr
          -7 callsubr
          endchar
        </CharString>
        <CharString name="O">
          10 callsubr
          70 callsubr
          -103 callsubr
          -102 callsubr
          -98 callsubr
        </CharString>
        <CharString name="OE">
          2094 98 715 rmoveto
          -415 316 -327 431 vhcurveto
          157 96 27 147 hhcurveto
          763 hlineto
          15 410 rlineto
          -63 hlineto
          -55 -271 -69 -40 -281 -11 rrcurveto
          -252 -9 0 621 261 -3 92 -1 25 -38 29 -163 rlinecurve
          60 488 -60 hlineto
          -33 -165 -24 -35 -89 -2 rrcurveto
          -261 -2 0 586 237 -8 247 -10 76 -49 52 -221 rlinecurve
          64 hlineto
          -13 367 rlineto
          -719 hlineto
          -162 -69 27 -157 hhcurveto
          -461 -300 -327 -429 hvcurveto
          289 10 rmoveto
          369 173 283 319 61 55 -9 -19 43 vhcurveto
          -1257 vlineto
          -17 -47 -59 -8 -59 hhcurveto
          -305 -181 283 375 hvcurveto
          endchar
        </CharString>
        <CharString name="Oacute">
          1676 800 -74 callsubr
          -617 -833 -104 callsubr
          -103 callsubr
          -102 callsubr
          -98 callsubr
        </CharString>
        <CharString name="Obreve">
          1676 832 21 callsubr
          -3 15 hvcurveto
          211 callsubr
          106 callgsubr
          -734 -868 -104 callsubr
          -103 callsubr
          -102 callsubr
          -98 callsubr
        </CharString>
        <CharString name="Ocaron">
          1676 1047 -19 callsubr
          88 callsubr
          -1032 -1123 -104 callsubr
          -103 callsubr
          -102 callsubr
          -98 callsubr
        </CharString>
        <CharString name="Ocircumflex">
          1676 639 -33 callsubr
          -35 callsubr
          -44 callsubr
          -458 -833 -104 callsubr
          -103 callsubr
          -102 callsubr
          -98 callsubr
        </CharString>
        <CharString name="Ocircumflexacute">
          1676 1116 123 callsubr
          -450 -834 -104 callsubr
          -103 callsubr
          -102 callsubr
          -98 callsubr
        </CharString>
        <CharString name="Ocircumflexdotbelow">
          1676 639 -33 callsubr
          -35 callsubr
          -44 callsubr
          -458 -833 -104 callsubr
          -103 callsubr
          -102 callsubr
          308 121 callsubr
          453 -924 -3 callsubr
        </CharString>
        <CharString name="Ocircumflexgrave">
          1676 548 122 callsubr
          -450 -834 -104 callsubr
          -103 callsubr
          -102 callsubr
          -98 callsubr
        </CharString>
        <CharString name="Ocircumflexhookabove">
          1676 1067 1927 rmoveto
          -73 -80 callgsubr
          -34 -23 -71 -65 callgsubr
          -96 vhcurveto
          -519 -433 rmoveto
          63 callsubr
          -450 -834 -104 callsubr
          -103 callsubr
          -102 callsubr
          -98 callsubr
        </CharString>
        <CharString name="Ocircumflextilde">
          1676 952 157 callsubr
          26 28 -7 -12 39 hvcurveto
          64 callgsubr
          -450 -834 -104 callsubr
          -103 callsubr
          -102 callsubr
          -98 callsubr
        </CharString>
        <CharString name="Ocyrillic">
          10 callsubr
          70 callsubr
          -103 callsubr
          -102 callsubr
          -98 callsubr
        </CharString>
        <CharString name="Odblgrave">
          1676 635 118 callsubr
          -954 -832 -104 callsubr
          -103 callsubr
          -102 callsubr
          -98 callsubr
        </CharString>
        <CharString name="Odieresis">
          1676 662 22 callsubr
          -35 callgsubr
          -904 -865 -104 callsubr
          -103 callsubr
          -102 callsubr
          -98 callsubr
        </CharString>
        <CharString name="Odieresismacron">
          1676 547 -103 callgsubr
          131 -368 -47 callsubr
          -41 -34 -46 -46 41 -34 -57 callsubr
          63 callgsubr
          -887 -833 -104 callsubr
          -103 callsubr
          -102 callsubr
          -98 callsubr
        </CharString>
        <CharString name="Odotaccent">
          1676 832 -68 callsubr
          -93 callgsubr
          -734 -864 -104 callsubr
          -103 callsubr
          -102 callsubr
          -98 callsubr
        </CharString>
        <CharString name="Odotaccentmacron">
          1676 547 162 callsubr
          -734 -826 -104 callsubr
          -103 callsubr
          -102 callsubr
          -98 callsubr
        </CharString>
        <CharString name="Odotbelow">
          10 callsubr
          70 callsubr
          -103 callsubr
          -102 callsubr
          308 121 callsubr
          453 -924 -3 callsubr
        </CharString>
        <CharString name="Ograve">
          1676 885 134 callsubr
          -464 -1109 -104 callsubr
          -103 callsubr
          -102 callsubr
          -98 callsubr
        </CharString>
        <CharString name="Ohookabove">
          1676 858 133 callsubr
          -760 -1163 -104 callsubr
          -103 callsubr
          -102 callsubr
          -98 callsubr
        </CharString>
        <CharString name="Ohorn">
          1690 98 721 -104 callsubr
          51 callsubr
        </CharString>
        <CharString name="Ohornacute">
          1690 802 -74 callsubr
          -619 -833 -104 callsubr
          51 callsubr
        </CharString>
        <CharString name="Ohorndotbelow">
          1690 98 721 -104 callsubr
          308 -160 236 -229 119 vhcurveto
          -4 27 28 -4 30 hhcurveto
          174 120 59 129 1 hvcurveto
          92 -64 86 -86 49 vhcurveto
          -68 hlineto
          20 -27 16 -58 -51 vvcurveto
          -125 -1 -74 -85 -151 -93 -100 24 -130 8 callgsubr
          121 callsubr
          447 -924 -79 callsubr
          52 49 63 63 -52 47 -64 hvcurveto
          endchar
        </CharString>
        <CharString name="Ohorngrave">
          1690 887 1554 rmoveto
          85 hlineto
          -140 283 rlineto
          -267 -7 hlineto
          -467 -1109 -104 callsubr
          51 callsubr
        </CharString>
        <CharString name="Ohornhookabove">
          1690 860 1884 -74 callgsubr
          -28 -44 -47 -43 -41 -84 95 callgsubr
          -762 -1163 -104 callsubr
          51 callsubr
        </CharString>
        <CharString name="Ohorntilde">
          1690 952 119 callsubr
          -30 21 rlineto
          35 -49 -54 callgsubr
          3 64 callsubr
          -854 -846 -104 callsubr
          51 callsubr
        </CharString>
        <CharString name="Ohungarumlaut">
          1676 705 97 callgsubr
          142 hmoveto
          -146 -284 92 0 279 276 rlineto
          8 vlineto
          -1183 -1117 -104 callsubr
          -103 callsubr
          -102 callsubr
          -98 callsubr
        </CharString>
        <CharString name="Oinvertedbreve">
          1676 831 1892 rmoveto
          -175 96 callgsubr
          121 122 76 -68 -88 vhcurveto
          -7 71 vlineto
          224 callsubr
          -733 -1171 -104 callsubr
          -103 callsubr
          -102 callsubr
          -98 callsubr
        </CharString>
        <CharString name="Omacron">
          1676 562 2 callsubr
          -464 -1019 -104 callsubr
          -103 callsubr
          -102 callsubr
          -98 callsubr
        </CharString>
        <CharString name="Omacronacute">
          1676 1116 79 callsubr
          -23 callgsubr
          -449 -964 -104 callsubr
          -103 callsubr
          -102 callsubr
          -98 callsubr
        </CharString>
        <CharString name="Omacrongrave">
          1676 548 78 callsubr
          -24 callgsubr
          -449 -964 -104 callsubr
          -103 callsubr
          -102 callsubr
          -98 callsubr
        </CharString>
        <CharString name="Omegagreek">
          1575 82 -13 callgsubr
          -219 -61 vhcurveto
          -314 603 vlineto
          49 368 rlineto
          -55 hlineto
          -68 -168 -152 -42 -295 -2 rrcurveto
          109 vlineto
          319 45 220 224 321 vvcurveto
          354 -298 216 callsubr
          225 -218 315 -45 vhcurveto
          -109 vlineto
          -287 2 -155 39 -74 171 rrcurveto
          -55 hlineto
          endchar
        </CharString>
        <CharString name="Omegatonosgreek">
          1725 231 -13 callgsubr
          -218 -61 vhcurveto
          -314 602 vlineto
          49 368 rlineto
          -55 hlineto
          -67 -168 -153 -42 -295 -2 rrcurveto
          109 vlineto
          319 45 221 224 321 vvcurveto
          354 -299 216 callsubr
          226 -218 314 -45 vhcurveto
          -109 vlineto
          -287 2 -154 39 -75 171 rrcurveto
          -55 hlineto
          -97 707 139 callsubr
          endchar
        </CharString>
        <CharString name="Omicrongreek">
          10 callsubr
          70 callsubr
          -103 callsubr
          -102 callsubr
          -98 callsubr
        </CharString>
        <CharString name="Omicrontonosgreek">
          1765 187 721 -104 callsubr
          -103 callsubr
          -103 354 139 callsubr
          480 -336 rmoveto
          356 127 279 -98 callsubr
        </CharString>
        <CharString name="Oogonek">
          10 callsubr
          183 callsubr
        </CharString>
        <CharString name="Oogonekmacron">
          1676 562 2 callsubr
          -464 -1019 rmoveto
          183 callsubr
        </CharString>
        <CharString name="Oslash">
          10 callsubr
          178 callsubr
        </CharString>
        <CharString name="Oslashacute">
          1676 800 -74 callsubr
          -617 -833 rmoveto
          178 callsubr
        </CharString>
        <CharString name="Otilde">
          1676 950 71 callsubr
          114 callsubr
          -852 -846 -104 callsubr
          -103 callsubr
          -102 callsubr
          -98 callsubr
        </CharString>
        <CharString name="Otildeacute">
          1676 1116 35 callsubr
          404 -212 16 callsubr
          76 hlineto
          45 1 27 18 43 hhcurveto
          26 28 -6 -13 39 hvcurveto
          32 -10 rlineto
          -14 43 42 -10 47 hhcurveto
          -854 -835 -104 callsubr
          -103 callsubr
          -102 callsubr
          -98 callsubr
        </CharString>
        <CharString name="Otildedieresis">
          1676 678 1792 -47 callsubr
          -41 -34 -46 -46 41 -34 -57 callsubr
          63 callgsubr
          -33 -236 16 callsubr
          76 hlineto
          45 1 27 18 43 hhcurveto
          26 28 -6 -13 39 hvcurveto
          32 -10 rlineto
          -14 43 42 -10 47 hhcurveto
          -854 -835 -104 callsubr
          -103 callsubr
          -102 callsubr
          -98 callsubr
        </CharString>
        <CharString name="Otildemacron">
          1676 547 -103 callgsubr
          405 -366 16 callsubr
          76 hlineto
          45 1 27 18 43 hhcurveto
          26 28 -6 -13 39 hvcurveto
          32 -10 rlineto
          -14 43 42 -10 47 hhcurveto
          -854 -835 -104 callsubr
          -103 callsubr
          -102 callsubr
          -98 callsubr
        </CharString>
        <CharString name="P">
          1345 1258 1019 50 callsubr
        </CharString>
        <CharString name="Pacute">
          1345 607 -49 callsubr
          100 callsubr
          736 -535 50 callsubr
        </CharString>
        <CharString name="Pdotaccent">
          1345 639 -68 callsubr
          -64 -52 -48 -63 -63 51 -48 65 hvcurveto
          619 -566 50 callsubr
        </CharString>
        <CharString name="Pecyrillic">
          1641 1421 -56 callgsubr
          -1518 -40 callsubr
          -107 callsubr
          -51 callsubr
          1169 671 -1169 vlineto
          -86 -20 -18 -130 -17 vhcurveto
          -68 574 68 vlineto
          11 callsubr
          endchar
        </CharString>
        <CharString name="Phigreek">
          1840 85 719 rmoveto
          -321 277 -176 433 -13 vhcurveto
          -1 34 callsubr
          594 7 callsubr
          1 vlineto
          412 14 298 175 326 vvcurveto
          322 -283 175 -427 13 vhcurveto
          2 vlineto
          98 21 25 151 17 vhcurveto
          68 -594 -68 vlineto
          151 -17 21 -25 -98 vvcurveto
          -2 vlineto
          -407 -14 -303 -172 -329 vvcurveto
          1399 hmoveto
          -250 -169 -156 -270 -17 vhcurveto
          853 vlineto
          284 -17 155 -158 -255 vvcurveto
          -1128 8 rmoveto
          247 167 157 272 18 vhcurveto
          -854 vlineto
          -281 18 -158 156 258 vvcurveto
          endchar
        </CharString>
        <CharString name="Pigreek">
          1612 1391 -56 callgsubr
          -1488 -40 callsubr
          -107 callsubr
          -51 callsubr
          1169 641 -1169 vlineto
          -86 -19 -18 -131 -17 vhcurveto
          -68 574 68 vlineto
          11 callsubr
          endchar
        </CharString>
        <CharString name="Psigreek">
          1779 1014 208 rmoveto
          301 vlineto
          319 12 177 127 47 327 rrcurveto
          34 231 17 123 34 31 93 4 rlinecurve
          68 vlineto
          5 -28 -55 7 -53 hhcurveto
          -146 -75 -57 -190 -29 hvcurveto
          -36 -241 -36 -235 -78 -108 -185 -18 rlinecurve
          659 vlineto
          86 20 19 130 16 vhcurveto
          69 -550 -69 vlineto
          130 -16 20 -19 -86 vvcurveto
          -659 vlineto
          -184 18 -79 109 -35 234 -36 241 rcurveline
          190 -29 -76 57 -145 hhcurveto
          -54 -55 -7 -5 -28 hvcurveto
          -68 vlineto
          94 -4 33 -31 18 -123 rrcurveto
          33 -231 48 -327 177 -127 318 -12 rlinecurve
          -301 vlineto
          -97 -21 -26 -150 -17 vhcurveto
          -68 593 68 vlineto
          -150 17 -22 26 97 vvcurveto
          endchar
        </CharString>
        <CharString name="Q">
          10 callsubr
          -437 315 -280 362 -29 vhcurveto
          136 -123 rlineto
          -188 210 95 -34 123 hhcurveto
          96 93 28 39 72 hvcurveto
          62 vlineto
          -122 -13 -110 44 -193 154 -85 68 rcurveline
          303 99 186 279 333 vvcurveto
          462 -352 286 -387 -450 -292 -332 -418 vhcurveto
          -102 callsubr
          307 283 176 -297 -371 -1 vhcurveto
          -356 -1 -126 -280 -307 hhcurveto
          -284 -174 298 371 hvcurveto
          endchar
        </CharString>
        <CharString name="R">
          1373 1242 1053 149 callsubr
          endchar
        </CharString>
        <CharString name="Racute">
          1373 623 -74 callsubr
          704 -501 149 callsubr
          endchar
        </CharString>
        <CharString name="Rcaron">
          1373 871 141 callsubr
          -87 0 -44 callgsubr
          289 -791 149 callsubr
          endchar
        </CharString>
        <CharString name="Rcommaaccent">
          -50 callgsubr
          -247 -1510 rmoveto
          146 97 -21 callsubr
          -63 86 callsubr
          -71 callsubr
          176 callsubr
        </CharString>
        <CharString name="Rdblgrave">
          1373 458 1838 rmoveto
          -225 -8 -20 callgsubr
          285 rmoveto
          -208 -8 hlineto
          189 -277 rlineto
          87 hlineto
          366 -500 149 callsubr
          endchar
        </CharString>
        <CharString name="Rdotaccent">
          1373 655 -68 callsubr
          -46 callsubr
          587 -532 149 callsubr
          endchar
        </CharString>
        <CharString name="Rdotbelow">
          -50 callgsubr
          -234 -1219 -79 callsubr
          8 callsubr
        </CharString>
        <CharString name="Rdotbelowmacron">
          1373 385 2 callsubr
          857 -687 149 callsubr
          -234 -1219 -79 callsubr
          8 callsubr
        </CharString>
        <CharString name="Rhogreek">
          1345 1258 1019 50 callsubr
        </CharString>
        <CharString name="Rinvertedbreve">
          1373 655 1892 rmoveto
          -176 -97 -125 -130 -17 1 -16 3 -15 hvcurveto
          30 callgsubr
          130 -99 125 -174 vhcurveto
          587 -839 149 callsubr
          endchar
        </CharString>
        <CharString name="Rlinebelow">
          -50 callgsubr
          -512 -1393 -20 callsubr
        </CharString>
        <CharString name="S">
          1209 583 -27 103 callsubr
          endchar
        </CharString>
        <CharString name="Sacute">
          1209 599 -49 callsubr
          36 callsubr
          68 -1581 103 callsubr
          endchar
        </CharString>
        <CharString name="Sacutedotaccent">
          1209 631 1758 80 callgsubr
          285 -140 rmoveto
          129 vlineto
          -569 -147 rlineto
          -61 vlineto
          236 -1566 103 callsubr
          endchar
        </CharString>
        <CharString name="Scaron">
          1209 847 141 callsubr
          -86 0 210 -29 callgsubr
          -347 -1871 103 callsubr
          endchar
        </CharString>
        <CharString name="Scarondotaccent">
          1209 631 1778 80 callgsubr
          291 -19 rmoveto
          -290 -90 -291 90 0 -61 267 -155 50 0 265 155 rlineto
          -340 -1725 103 callsubr
          endchar
        </CharString>
        <CharString name="Scedilla">
          1209 560 -67 callgsubr
          61 81 rlineto
          273 17 212 165 251 vvcurveto
          208 -122 139 -263 87 vhcurveto
          -116 38 rlineto
          -171 57 -95 73 134 vvcurveto
          135 97 96 186 177 133 -107 -220 45 vhcurveto
          64 hlineto
          -11 320 rlineto
          56 -72 -149 48 -184 hhcurveto
          -317 -211 -162 -246 -203 136 -139 246 -80 hvcurveto
          117 -38 rlineto
          183 -61 85 -87 -137 vvcurveto
          -148 -113 -100 -175 -200 -168 115 237 -53 vhcurveto
          -64 hlineto
          12 -331 rlineto
          86 -62 158 -49 186 -6 -103 -133 rcurveline
          -60 vlineto
          3 9 19 2 17 hhcurveto
          71 53 -27 -54 -53 -50 -29 -65 -52 -55 16 22 -31 hvcurveto
          -67 vlineto
          -42 39 75 -28 91 hhcurveto
          endchar
        </CharString>
        <CharString name="Schwa">
          1500 693 -27 rmoveto
          427 283 294 454 487 -308 264 -425 -227 -180 -45 -62 -91 hvcurveto
          -12 -335 rlineto
          64 hlineto
          227 53 144 118 224 hhcurveto
          303 167 -240 -414 hvcurveto
          -12 0 -11 -11 vvcurveto
          -1036 hlineto
          -5 -31 -3 -36 -35 vvcurveto
          -358 209 -254 413 vhcurveto
          -359 594 rmoveto
          12 0 13 1 12 vhcurveto
          776 1 rlineto
          -324 -25 -134 -211 -253 hhcurveto
          -268 -97 221 276 hvcurveto
          endchar
        </CharString>
        <CharString name="Scircumflex">
          1209 438 28 callsubr
          -47 callgsubr
          227 -1581 103 callsubr
          endchar
        </CharString>
        <CharString name="Scommaaccent">
          1209 583 -27 103 callsubr
          -5 -449 33 callsubr
          -88 69 -123 -16 callsubr
          -71 callsubr
          -82 callgsubr
        </CharString>
        <CharString name="Sdotaccent">
          1209 631 67 callsubr
          -48 -1612 103 callsubr
          endchar
        </CharString>
        <CharString name="Sdotbelow">
          1209 583 -27 103 callsubr
          8 -158 -62 callgsubr
        </CharString>
        <CharString name="Sdotbelowdotaccent">
          1209 631 67 callsubr
          -48 -1612 103 callsubr
          8 -158 -62 callgsubr
        </CharString>
        <CharString name="Shacyrillic">
          2329 2109 -31 callsubr
          140 17 vhcurveto
          68 -574 -69 vlineto
          131 136 callsubr
          19 18 131 16 vhcurveto
          69 -565 -69 vlineto
          130 136 callsubr
          20 18 131 16 vhcurveto
          69 -574 -40 callsubr
          -107 callsubr
          2205 68 vlineto
          -140 17 -18 20 89 vvcurveto
          endchar
        </CharString>
        <CharString name="Shchacyrillic">
          2361 2302 86 rmoveto
          -193 1164 hlineto
          89 18 20 140 17 vhcurveto
          68 -574 -69 vlineto
          131 136 callsubr
          19 18 131 16 vhcurveto
          69 -565 -69 vlineto
          130 136 callsubr
          20 18 131 16 vhcurveto
          69 -574 -40 callsubr
          -107 callsubr
          1869 vlineto
          185 39 -30 -284 81 hvcurveto
          74 hlineto
          endchar
        </CharString>
        <CharString name="Sigmagreek">
          1280 1138 1444 rmoveto
          -1080 -64 hlineto
          493 -681 -489 -568 rlineto
          -131 1115 vlineto
          15 455 rlineto
          -69 hlineto
          -235 -51 -71 -34 -285 hhcurveto
          -495 hlineto
          546 590 0 27 -397 563 334 -10 266 -9 64 -59 53 -210 rlinecurve
          63 hlineto
          endchar
        </CharString>
        <CharString name="Softsigncyrillic">
          1340 1257 170 callsubr
          -43 callgsubr
          -107 callsubr
          631 vlineto
          369 195 200 246 hvcurveto
          -283 -9 0 callgsubr
        </CharString>
        <CharString name="T">
          1363 -37 callsubr
          -63 callsubr
          -45 callsubr
          -43 callsubr
          -56 callsubr
          -62 callsubr
          endchar
        </CharString>
        <CharString name="Taugreek">
          1363 -37 callsubr
          -63 callsubr
          -45 callsubr
          -43 callsubr
          -56 callsubr
          -62 callsubr
          endchar
        </CharString>
        <CharString name="Tbar">
          1363 265 698 rmoveto
          284 -491 hlineto
          -97 -21 -25 -151 -17 vhcurveto
          -68 -43 callsubr
          25 97 vvcurveto
          491 284 84 -284 583 -62 callsubr
          -13 367 -1241 0 -13 -63 callsubr
          -583 -284 vlineto
          endchar
        </CharString>
        <CharString name="Tcaron">
          1363 897 141 callsubr
          -87 0 142 callsubr
          323 -400 rmoveto
          -1241 hlineto
          -13 -63 callsubr
          -45 callsubr
          -43 callsubr
          -56 callsubr
          -62 callsubr
          endchar
        </CharString>
        <CharString name="Tcedilla">
          1363 650 -67 callgsubr
          79 107 rlineto
          248 68 hlineto
          -152 17 -21 -56 callsubr
          -62 callsubr
          -13 367 -1241 0 -13 -63 callsubr
          -45 callsubr
          274 232 callsubr
          71 53 -27 -54 -53 -49 -29 -66 -52 -55 16 22 -31 hvcurveto
          -67 vlineto
          -42 40 75 -28 90 hhcurveto
          endchar
        </CharString>
        <CharString name="Tcircumflexbelow">
          1363 -37 callsubr
          -63 callsubr
          -45 callsubr
          -43 callsubr
          -56 callsubr
          -62 callsubr
          -841 -1539 rmoveto
          207 177 204 132 callsubr
        </CharString>
        <CharString name="Tcommaaccent">
          1363 -37 callsubr
          -63 callsubr
          -45 callsubr
          -43 callsubr
          -56 callsubr
          -62 callsubr
          -647 -1553 rmoveto
          146 97 -21 callsubr
          -63 86 callsubr
          -71 callsubr
          176 callsubr
        </CharString>
        <CharString name="Tdotaccent">
          1363 681 -68 callsubr
          -46 callsubr
          621 -141 rmoveto
          -1241 hlineto
          -13 -63 callsubr
          -45 callsubr
          -43 callsubr
          -56 callsubr
          -62 callsubr
          endchar
        </CharString>
        <CharString name="Tdotbelow">
          1363 -37 callsubr
          -63 callsubr
          -45 callsubr
          -43 callsubr
          -56 callsubr
          -62 callsubr
          -634 -1262 -79 callsubr
          -65 callsubr
        </CharString>
        <CharString name="Tecyrillic">
          1363 -37 callsubr
          -63 callsubr
          -45 callsubr
          -43 callsubr
          -56 callsubr
          -62 callsubr
          endchar
        </CharString>
        <CharString name="Thetagreek">
          1681 839 -27 rmoveto
          451 293 332 418 462 -353 286 -388 -451 -294 -332 -418 -462 354 -286 388 hvcurveto
          13 92 rmoveto
          -294 -179 296 378 363 131 277 319 294 179 -295 -379 -363 -132 -277 -318 hvcurveto
          -309 412 rmoveto
          56 hlineto
          149 25 38 45 123 hhcurveto
          106 hlineto
          123 39 -45 -149 24 hvcurveto
          57 474 -57 hlineto
          -147 -24 -39 -45 -123 hhcurveto
          -106 hlineto
          -123 -38 45 147 -25 hvcurveto
          -56 hlineto
          endchar
        </CharString>
        <CharString name="Thorn">
          1323 1253 743 rmoveto
          267 -240 124 -368 vhcurveto
          -160 102 hlineto
          98 21 25 151 17 vhcurveto
          68 -595 -68 vlineto
          141 -17 18 -20 -88 vvcurveto
          -1058 vlineto
          -88 45 callsubr
          -17 callsubr
          123 160 vlineto
          353 255 139 273 hvcurveto
          -282 -17 rmoveto
          -201 -140 -104 -256 -8 vhcurveto
          -90 -3 0 644 90 -3 rlineto
          258 -7 138 -119 -199 vvcurveto
          endchar
        </CharString>
        <CharString name="Tlinebelow">
          1363 -37 callsubr
          -63 callsubr
          -45 callsubr
          -43 callsubr
          -56 callsubr
          -62 callsubr
          -912 -1436 -34 callsubr
        </CharString>
        <CharString name="Tsecyrillic">
          1674 1615 86 rmoveto
          -194 1164 hlineto
          89 19 20 140 17 vhcurveto
          68 -574 -69 vlineto
          130 -16 20 -19 -86 vvcurveto
          -1168 -671 1168 6 callsubr
          -107 callsubr
          1182 vlineto
          185 39 -30 -284 80 hvcurveto
          75 hlineto
          endchar
        </CharString>
        <CharString name="Tshecyrillic">
          1824 -37 callsubr
          -17 callgsubr
          460 vlineto
          41 67 95 20 110 hhcurveto
          203 103 -113 -229 hvcurveto
          -376 416 68 vlineto
          -131 17 -20 18 86 vvcurveto
          196 vlineto
          321 -200 124 -285 -152 -128 -36 -51 -78 vhcurveto
          620 212 callsubr
        </CharString>
        <CharString name="U">
          1544 185 1255 -81 callsubr
        </CharString>
        <CharString name="Uacute">
          1544 800 -49 callsubr
          36 callsubr
          -531 -299 -81 callsubr
        </CharString>
        <CharString name="Ubreve">
          1544 832 84 callgsubr
          -72 -7 hlineto
          -89 -75 -67 -122 -121 -76 68 88 vhcurveto
          7 107 callgsubr
          -647 -334 -81 callsubr
        </CharString>
        <CharString name="Ubrevecyrillic">
          1444 794 -9 callgsubr
          -42 hvcurveto
          48 62 callgsubr
          -549 -1471 185 callsubr
        </CharString>
        <CharString name="Ucaron">
          1544 1048 141 callsubr
          -87 0 211 -29 callgsubr
          -946 -589 -81 callsubr
        </CharString>
        <CharString name="Ucircumflex">
          1544 639 28 callsubr
          -211 283 -155 0 -211 -283 rlineto
          -371 -299 -81 callsubr
        </CharString>
        <CharString name="Ucircumflexbelow">
          128 callsubr
          417 -1717 5 callsubr
          84 callsubr
        </CharString>
        <CharString name="Ucyrillic">
          1444 245 118 185 callsubr
        </CharString>
        <CharString name="Udblgrave">
          1544 635 1838 rmoveto
          -225 -8 hlineto
          280 -277 rlineto
          90 hlineto
          206 285 rmoveto
          -208 -8 hlineto
          188 -277 rlineto
          87 hlineto
          -868 -298 -81 callsubr
        </CharString>
        <CharString name="Udieresis">
          1544 663 112 callsubr
          -818 -331 -81 callsubr
        </CharString>
        <CharString name="Udieresisacute">
          1544 1116 35 callsubr
          131 -214 55 callsubr
          -801 -299 -81 callsubr
        </CharString>
        <CharString name="Udieresisbelow">
          128 callsubr
          413 -1661 rmoveto
          93 callgsubr
          421 hmoveto
          93 callgsubr
          endchar
        </CharString>
        <CharString name="Udieresiscaron">
          1544 1116 28 callgsubr
          -437 -362 55 callsubr
          -801 -299 -81 callsubr
        </CharString>
        <CharString name="Udieresisgrave">
          1544 548 213 callsubr
          131 -422 55 callsubr
          -801 -299 -81 callsubr
        </CharString>
        <CharString name="Udieresismacron">
          1544 548 1822 rmoveto
          568 100 -568 hlineto
          131 -368 55 callsubr
          -801 -299 -81 callsubr
        </CharString>
        <CharString name="Udotbelow">
          128 callsubr
          623 -1440 -79 callsubr
          52 49 63 63 -52 47 -64 hvcurveto
          endchar
        </CharString>
        <CharString name="Ugrave">
          1544 886 135 callsubr
          -378 -575 -81 callsubr
        </CharString>
        <CharString name="Uhookabove">
          1544 858 1884 rmoveto
          -96 -70 -42 -46 -36 hvcurveto
          1 -53 rlineto
          21 26 45 17 52 hhcurveto
          64 39 -28 -44 -47 -42 -41 -85 95 callgsubr
          -673 -629 -81 callsubr
        </CharString>
        <CharString name="Uhorn">
          1651 189 537 48 callsubr
        </CharString>
        <CharString name="Uhornacute">
          1651 822 -49 callsubr
          100 callsubr
          -548 -1017 48 callsubr
        </CharString>
        <CharString name="Uhorndotbelow">
          1651 189 537 rmoveto
          -387 279 -177 305 360 221 221 350 4 vhcurveto
          7 853 rlineto
          -2 14 15 -1 14 hhcurveto
          152 81 66 108 89 -59 88 -83 48 hvcurveto
          -68 hlineto
          20 -27 16 -55 -54 vvcurveto
          -119 -1 -79 -94 -189 hhcurveto
          -119 -68 hlineto
          155 -21 16 -21 1 -107 5 -670 rcurveline
          -289 1 -152 -158 -246 hhcurveto
          -233 -173 146 296 hvcurveto
          689 vlineto
          94 21 20 150 21 vhcurveto
          68 -589 -68 vlineto
          133 -21 21 -20 -94 vvcurveto
          635 -1426 -79 callsubr
          -65 callsubr
        </CharString>
        <CharString name="Uhorngrave">
          1651 907 135 callsubr
          -395 -1293 48 callsubr
        </CharString>
        <CharString name="Uhornhookabove">
          1651 879 1884 rmoveto
          -96 -70 34 callgsubr
          72 hlineto
          154 61 55 56 71 vvcurveto
          77 -71 54 -108 vhcurveto
          -690 -1347 48 callsubr
        </CharString>
        <CharString name="Uhorntilde">
          1651 972 71 callsubr
          -23 -30 -40 hhcurveto
          -28 -23 13 23 -32 hvcurveto
          -29 21 rlineto
          35 -50 -42 24 -57 hhcurveto
          -96 -76 -72 -191 3 hvcurveto
          77 hlineto
          91 4 22 31 41 hhcurveto
          27 24 -13 -23 31 hvcurveto
          30 -22 rlineto
          -35 50 42 -24 57 hhcurveto
          -783 -1030 48 callsubr
        </CharString>
        <CharString name="Uhungarumlaut">
          1544 706 97 callgsubr
          141 hmoveto
          -145 -284 91 0 279 276 rlineto
          8 vlineto
          -1096 -583 -81 callsubr
        </CharString>
        <CharString name="Uinvertedbreve">
          1544 832 1892 rmoveto
          -176 -97 -125 -130 -17 2 -16 2 -15 hvcurveto
          72 7 hlineto
          88 75 68 122 121 76 -68 -88 vhcurveto
          -7 72 vlineto
          224 callsubr
          -647 -637 -81 callsubr
        </CharString>
        <CharString name="Umacron">
          1544 563 87 callsubr
          -378 -485 -81 callsubr
        </CharString>
        <CharString name="Umacrondieresis">
          1544 679 1792 55 callsubr
          -417 -207 rmoveto
          527 100 -527 hlineto
          -384 -430 -81 callsubr
        </CharString>
        <CharString name="Uogonek">
          1544 831 58 callgsubr
          75 105 60 16 58 27 40 hvcurveto
          313 33 183 215 4 324 rrcurveto
          6 659 2 123 18 28 134 16 rlinecurve
          69 -432 -68 vlineto
          145 -18 18 -27 1 207 callsubr
          -39 callgsubr
          vhcurveto
          2 hlineto
          -88 -75 -59 -96 -94 vvcurveto
          -119 90 -75 117 vhcurveto
          endchar
        </CharString>
        <CharString name="Upsilondieresisgreek">
          1374 588 112 callsubr
          -701 -404 -73 callsubr
          -64 callsubr
        </CharString>
        <CharString name="Upsilongreek">
          1374 227 1182 -73 callsubr
          -64 callsubr
        </CharString>
        <CharString name="Upsilontonosgreek">
          1719 572 1182 -73 callsubr
          608 68 vlineto
          -151 17 -20 26 97 vvcurveto
          -77 callgsubr
          -432 -68 vlineto
          151 -19 7 -38 -85 -151 rrcurveto
          -244 -435 -264 448 -81 139 12 38 145 104 callgsubr
          -488 -107 139 callsubr
          endchar
        </CharString>
        <CharString name="Uring">
          1544 583 1744 rmoveto
          -111 111 -74 138 139 111 74 111 110 -111 76 -139 -138 -111 -76 -110 vhcurveto
          153 hmoveto
          69 40 47 56 55 40 -47 -69 -69 -40 -47 -55 -56 -40 47 69 vhcurveto
          -551 -489 -81 callsubr
        </CharString>
        <CharString name="Utilde">
          1544 950 119 callsubr
          -22 callgsubr
          51 callgsubr
          -765 -312 -81 callsubr
        </CharString>
        <CharString name="Utildeacute">
          1544 1116 35 callsubr
          405 -212 rmoveto
          94 70 55 113 hvcurveto
          -77 hlineto
          -45 -1 -27 -19 -42 hhcurveto
          -27 -27 7 13 -40 hvcurveto
          -31 10 rlineto
          14 -44 -41 9 -48 hhcurveto
          -93 -71 -54 -113 hvcurveto
          77 hlineto
          45 28 18 42 27 27 -6 -13 40 vhcurveto
          31 -10 rlineto
          -14 44 41 -10 48 hhcurveto
          -768 -301 -81 callsubr
        </CharString>
        <CharString name="Utildebelow">
          128 callsubr
          738 -1675 rmoveto
          92 74 40 callsubr
          74 callsubr
          105 callgsubr
          21 30 40 -75 callgsubr
        </CharString>
        <CharString name="V">
          214 callsubr
          endchar
        </CharString>
        <CharString name="Vdotbelow">
          214 callsubr
          526 -1361 -79 callsubr
          -65 callsubr
        </CharString>
        <CharString name="Vecyrillic">
          1394 1307 419 110 callsubr
        </CharString>
        <CharString name="Vtilde">
          1434 899 1567 rmoveto
          96 77 73 190 -3 hvcurveto
          -78 hlineto
          -91 -4 -22 -30 -40 hhcurveto
          -28 -23 13 23 -32 hvcurveto
          -22 callgsubr
          51 callgsubr
          -704 -391 rmoveto
          195 callsubr
          endchar
        </CharString>
        <CharString name="W">
          2195 192 1176 13 callsubr
        </CharString>
        <CharString name="Wacute">
          2195 1135 -49 callsubr
          100 callsubr
          -858 -378 13 callsubr
        </CharString>
        <CharString name="Wcircumflex">
          2195 974 -33 callsubr
          -35 callsubr
          -44 callsubr
          -699 -378 13 callsubr
        </CharString>
        <CharString name="Wdieresis">
          2195 997 1586 rmoveto
          62 -70 callsubr
          -62 76 callgsubr
          -1145 -410 13 callsubr
        </CharString>
        <CharString name="Wdotaccent">
          2195 1167 -68 callsubr
          -65 -51 -48 -63 -63 51 -48 65 hvcurveto
          -975 -409 13 callsubr
        </CharString>
        <CharString name="Wdotbelow">
          2195 192 1176 rmoveto
          376 -1178 181 0 352 1124 340 -1124 184 0 370 1158 57 175 32 29 120 16 rlinecurve
          68 -441 -68 vlineto
          151 -21 12 -32 -46 -161 rrcurveto
          -264 -912 -269 926 -44 153 11 27 145 20 rlinecurve
          68 -571 -68 vlineto
          148 -21 13 -26 -44 -156 rrcurveto
          -264 -924 -273 926 -43 149 13 32 148 20 rlinecurve
          68 -595 -68 vlineto
          113 -15 37 -26 51 -159 rrcurveto
          907 -1361 -79 callsubr
          8 callsubr
        </CharString>
        <CharString name="Wgrave">
          2195 1220 135 callsubr
          -705 -654 13 callsubr
        </CharString>
        <CharString name="X">
          1402 282 290 47 callsubr
        </CharString>
        <CharString name="Xdieresis">
          1402 603 112 callsubr
          -661 -1296 47 callsubr
        </CharString>
        <CharString name="Xdotaccent">
          1402 772 -78 callgsubr
          -490 -1295 47 callsubr
        </CharString>
        <CharString name="Xigreek">
          1359 1265 1444 rmoveto
          -1171 hlineto
          -15 -400 rlineto
          64 hlineto
          183 47 77 36 242 hhcurveto
          342 hlineto
          241 77 -36 -183 47 hvcurveto
          64 hlineto
          -698 -357 rmoveto
          195 hlineto
          149 41 -42 -148 27 hvcurveto
          59 463 -59 hlineto
          -146 -27 -41 -41 -149 hhcurveto
          -195 37 callgsubr
          691 -687 rmoveto
          223 callsubr
          -287 hlineto
          -282 -72 30 230 -49 hvcurveto
          -64 hlineto
          17 -443 rlineto
          endchar
        </CharString>
        <CharString name="Xigreek.1">
          1362 583 687 rmoveto
          60 -504 -106 hlineto
          -282 -72 30 230 -49 hvcurveto
          -64 hlineto
          18 -443 1186 0 223 callsubr
          -106 504 61 hlineto
          148 41 -42 -148 26 hvcurveto
          61 463 -61 hlineto
          -146 -26 -41 -41 -148 hhcurveto
          -61 490 134 hlineto
          241 77 -36 -183 48 hvcurveto
          64 hlineto
          -16 400 -1170 0 -16 -400 rlineto
          64 hlineto
          183 47 78 36 241 hhcurveto
          133 -490 -60 37 callgsubr
          endchar
        </CharString>
        <CharString name="Y">
          1374 227 1182 -73 callsubr
          -64 callsubr
        </CharString>
        <CharString name="Yacute">
          1374 725 -74 callsubr
          -413 -372 -73 callsubr
          -64 callsubr
        </CharString>
        <CharString name="Ycircumflex">
          1374 564 28 callsubr
          -211 283 -155 0 -211 -283 rlineto
          -254 -372 -73 callsubr
          -64 callsubr
        </CharString>
        <CharString name="Ydieresis">
          1374 588 112 callsubr
          -701 -404 -73 callsubr
          -64 callsubr
        </CharString>
        <CharString name="Ydotaccent">
          1374 757 -78 callgsubr
          -530 -403 -73 callsubr
          -64 callsubr
        </CharString>
        <CharString name="Ydotbelow">
          1374 227 1182 -73 callsubr
          609 7 callsubr
          -77 callgsubr
          -4 callgsubr
          469 -1367 -79 callsubr
          -65 callsubr
        </CharString>
        <CharString name="Yericyrillic">
          1955 1257 170 callsubr
          -43 callgsubr
          -107 callsubr
          631 vlineto
          369 195 200 246 hvcurveto
          477 -252 rmoveto
          1056 vlineto
          89 19 20 140 17 vhcurveto
          68 -582 -40 callsubr
          -107 callsubr
          582 68 vlineto
          11 callsubr
          -760 243 0 callgsubr
        </CharString>
        <CharString name="Ygrave">
          1374 811 135 callsubr
          -261 -648 -73 callsubr
          -64 callsubr
        </CharString>
        <CharString name="Yhookabove">
          1374 783 1884 -74 callgsubr
          -28 -44 -47 -42 -41 -85 95 callgsubr
          -556 -702 -73 callsubr
          -64 callsubr
        </CharString>
        <CharString name="Yicyrillic">
          706 183 22 callsubr
          -70 callsubr
          -48 callsubr
          -38 -1392 -77 callsubr
          -99 callsubr
          -105 callsubr
          -107 callsubr
          -78 callsubr
        </CharString>
        <CharString name="Ymacron">
          1374 488 87 callsubr
          -261 -558 -73 callsubr
          -64 callsubr
        </CharString>
        <CharString name="Ytilde">
          1374 875 119 callsubr
          -22 callgsubr
          3 64 callsubr
          -648 -385 -73 callsubr
          -64 callsubr
        </CharString>
        <CharString name="Z">
          1277 1185 hmoveto
          18 callsubr
        </CharString>
        <CharString name="Zacute">
          1277 613 -49 callsubr
          100 callsubr
          657 -1554 rmoveto
          18 callsubr
        </CharString>
        <CharString name="Zcaron">
          1277 860 -19 callsubr
          88 callsubr
          242 -1844 rmoveto
          18 callsubr
        </CharString>
        <CharString name="Zcircumflex">
          1277 452 1554 rmoveto
          204 146 203 -146 86 0 -210 283 -44 callsubr
          816 -1554 rmoveto
          18 callsubr
        </CharString>
        <CharString name="Zdotaccent">
          1277 644 67 callsubr
          541 -1585 rmoveto
          18 callsubr
        </CharString>
        <CharString name="Zdotbelow">
          1277 1185 hmoveto
          20 callsubr
          -320 75 callsubr
          63 61 callsubr
          565 -194 -79 callsubr
          -65 callsubr
        </CharString>
        <CharString name="Zecyrillic">
          1271 1184 418 rmoveto
          229 -184 112 -244 22 vhcurveto
          205 34 166 114 189 vvcurveto
          218 -177 135 -353 -196 -163 -53 -58 -84 vhcurveto
          -11 -312 rlineto
          64 hlineto
          223 53 119 103 195 hhcurveto
          188 91 -115 -171 -181 -114 -112 -205 hvcurveto
          -138 -81 138 hlineto
          237 132 -110 -203 -214 -140 -117 -210 -185 -135 93 242 -56 hvcurveto
          -64 hlineto
          12 -311 rlineto
          -64 93 175 -57 183 hhcurveto
          336 272 159 286 hvcurveto
          endchar
        </CharString>
        <CharString name="Zetagreek">
          1277 1185 hmoveto
          18 callsubr
        </CharString>
        <CharString name="Zhecyrillic">
          2037 330 hmoveto
          432 704 125 1 rlineto
          -516 vlineto
          -86 -17 -18 -133 -17 vhcurveto
          -68 551 68 vlineto
          -133 17 -17 18 86 vvcurveto
          516 vlineto
          125 -1 432 -704 rlineto
          348 64 hlineto
          -79 22 -47 47 -133 214 rrcurveto
          -334 544 238 263 144 157 58 43 123 22 rlinecurve
          68 -475 -68 vlineto
          152 -14 10 -44 -99 -121 -340 -409 rcurveline
          -123 467 hlineto
          86 17 18 133 17 vhcurveto
          68 -551 -92 callgsubr
          -467 -123 vlineto
          -339 409 -100 121 10 44 152 14 rlinecurve
          68 -475 -68 vlineto
          122 -22 56 -43 142 -156 rrcurveto
          249 -275 -329 -533 -132 -214 -48 -47 -78 -22 rlinecurve
          -64 vlineto
          endchar
        </CharString>
        <CharString name="Zlinebelow">
          1277 1185 hmoveto
          20 callsubr
          -320 75 callsubr
          63 61 callsubr
          287 -369 rmoveto
          556 130 -556 hlineto
          endchar
        </CharString>
        <CharString name="a">
          1117 378 -21 -95 callsubr
        </CharString>
        <CharString name="a.dnum">
          706 235 -12 -21 callgsubr
          -32 66 hhcurveto
          48 40 14 17 23 hvcurveto
          46 vlineto
          -2 -7 -9 -1 -11 hhcurveto
          -31 -26 18 44 hvcurveto
          236 vlineto
          133 -93 59 59 callgsubr
          13 vhcurveto
          7 20 23 3 24 hhcurveto
          82 50 -35 44 callgsubr
          164 rmoveto
          53 35 32 169 callsubr
        </CharString>
        <CharString name="a.numr">
          698 235 662 -21 callgsubr
          228 callsubr
          0 -11 hhcurveto
          -31 -26 18 43 hvcurveto
          237 vlineto
          133 -93 58 -154 -151 -105 -61 -78 -44 35 -31 47 47 35 34 45 24 -12 21 -17 14 vhcurveto
          6 20 23 4 24 hhcurveto
          82 50 -36 44 callgsubr
          165 rmoveto
          52 35 33 169 callsubr
        </CharString>
        <CharString name="a.sups">
          706 235 838 -21 callgsubr
          228 callsubr
          -1 -11 hhcurveto
          -31 -26 18 44 hvcurveto
          236 vlineto
          134 -93 58 59 callgsubr
          14 vhcurveto
          6 20 23 3 24 hhcurveto
          82 50 -35 44 callgsubr
          165 rmoveto
          52 35 33 169 callsubr
        </CharString>
        <CharString name="aacute">
          1117 480 -91 callsubr
          -72 callsubr
          -16 -1160 -95 callsubr
        </CharString>
        <CharString name="abreve">
          1117 523 125 callsubr
          -145 -1180 -95 callsubr
        </CharString>
        <CharString name="abreveacute">
          1117 800 -32 callsubr
          277 -292 rmoveto
          167 117 97 150 -7 hvcurveto
          -75 hlineto
          -65 -3 -85 -43 -114 hhcurveto
          -114 -86 43 65 -3 hvcurveto
          -74 95 callsubr
          -145 -1137 -95 callsubr
        </CharString>
        <CharString name="abrevecyrillic">
          1117 523 1153 rmoveto
          -76 callgsubr
          44 -46 53 hvcurveto
          1 hlineto
          -44 -40 -65 -28 -83 hhcurveto
          -83 -66 12 callgsubr
          -145 -1174 -95 callsubr
        </CharString>
        <CharString name="abrevedotbelow">
          1117 523 125 callsubr
          -145 -1180 46 callsubr
          244 -683 -96 callsubr
          -88 callsubr
        </CharString>
        <CharString name="abrevegrave">
          1117 246 -26 callsubr
          277 -536 rmoveto
          167 117 97 150 -7 hvcurveto
          -75 hlineto
          -65 -3 -85 -43 -114 hhcurveto
          -114 -86 43 65 -3 hvcurveto
          -74 95 callsubr
          -145 -1137 -95 callsubr
        </CharString>
        <CharString name="abrevehookabove">
          1117 516 1638 rmoveto
          -76 -63 -31 -34 -35 hvcurveto
          -59 vlineto
          15 25 46 14 46 hhcurveto
          62 37 75 callgsubr
          167 117 97 150 -7 hvcurveto
          -75 hlineto
          -65 -3 -85 -43 -114 hhcurveto
          -114 -86 43 65 -3 hvcurveto
          -74 95 callsubr
          -145 -1137 -95 callsubr
        </CharString>
        <CharString name="abrevetilde">
          1117 640 153 callsubr
          -117 -317 rmoveto
          167 117 97 150 -7 hvcurveto
          -75 hlineto
          -65 -3 -85 -43 -114 hhcurveto
          -114 -86 43 65 -3 hvcurveto
          -74 95 callsubr
          -145 -1137 -95 callsubr
        </CharString>
        <CharString name="acaron">
          1117 745 -38 callsubr
          137 callsubr
          -453 -1537 -95 callsubr
        </CharString>
        <CharString name="acircumflex">
          1117 300 -67 callsubr
          -25 callsubr
          164 -1160 -95 callsubr
        </CharString>
        <CharString name="acircumflexacute">
          1117 800 -32 callsubr
          -295 vmoveto
          38 callsubr
          132 -1207 -95 callsubr
        </CharString>
        <CharString name="acircumflexdotbelow">
          1117 300 -67 callsubr
          -25 callsubr
          164 -1160 46 callsubr
          244 -683 -96 callsubr
          -88 callsubr
        </CharString>
        <CharString name="acircumflexgrave">
          1117 246 -26 callsubr
          -539 vmoveto
          38 callsubr
          132 -1207 -95 callsubr
        </CharString>
        <CharString name="acircumflexhookabove">
          1117 737 165 callsubr
          -73 -20 hvcurveto
          60 -45 rlineto
          118 30 71 44 86 vvcurveto
          85 -88 47 -97 vhcurveto
          -491 -525 rmoveto
          277 106 -71 callgsubr
          132 -1207 -95 callsubr
        </CharString>
        <CharString name="acircumflextilde">
          1117 640 153 callsubr
          -394 -320 rmoveto
          38 callsubr
          132 -1207 -95 callsubr
        </CharString>
        <CharString name="acute">
          1024 469 -91 callsubr
          -60 callsubr
          endchar
        </CharString>
        <CharString name="acutecmb">
          0 -43 -91 callsubr
          -60 callsubr
          endchar
        </CharString>
        <CharString name="acutecmb.short">
          0 -32 1107 rmoveto
          320 276 rlineto
          8 -257 vlineto
          -148 -284 rlineto
          endchar
        </CharString>
        <CharString name="acutedotaccentcmb">
          0 1393 vmoveto
          -94 callgsubr
          -84 callgsubr
          277 -180 91 callsubr
          endchar
        </CharString>
        <CharString name="acutedotaccentcmb.short">
          0 1758 83 callgsubr
          284 -140 rmoveto
          129 vlineto
          -568 -147 rlineto
          -61 vlineto
          endchar
        </CharString>
        <CharString name="acyrillic">
          1117 378 -21 -95 callsubr
        </CharString>
        <CharString name="adblgrave">
          1117 281 1 callgsubr
          -364 -1160 -95 callsubr
        </CharString>
        <CharString name="adieresis">
          1117 296 1 callsubr
          -70 -57 77 callsubr
          -371 -1223 -95 callsubr
        </CharString>
        <CharString name="adieresismacron">
          1117 245 1460 -41 callsubr
          115 -441 140 callsubr
          -85 callgsubr
          343 hmoveto
          -36 callgsubr
          -54 -85 callgsubr
          -307 -1157 -95 callsubr
        </CharString>
        <CharString name="adotaccent">
          1117 523 -24 callsubr
          -90 callgsubr
          -145 -1215 -95 callsubr
        </CharString>
        <CharString name="adotbelow">
          1117 378 -21 46 callsubr
          244 -683 -96 callsubr
          -88 callsubr
        </CharString>
        <CharString name="adotmacron">
          1117 245 1448 -41 callsubr
          72 callgsubr
          -145 -1156 -95 callsubr
        </CharString>
        <CharString name="ae">
          1664 383 -21 146 callsubr
        </CharString>
        <CharString name="aeacute">
          1664 792 -91 callsubr
          -72 callsubr
          -323 -1160 146 callsubr
        </CharString>
        <CharString name="aemacron">
          1664 535 -107 callgsubr
          -152 -1404 146 callsubr
        </CharString>
        <CharString name="agrave">
          1117 566 -52 callsubr
          155 -1518 -95 callsubr
        </CharString>
        <CharString name="ahookabove">
          1117 557 130 callsubr
          -179 -1536 -95 callsubr
        </CharString>
        <CharString name="ainvertedbreve">
          1117 523 120 callsubr
          26 callgsubr
          -145 -1518 -95 callsubr
        </CharString>
        <CharString name="alphagreek">
          1295 471 -21 179 callsubr
        </CharString>
        <CharString name="alphatonosgreek">
          1295 636 1138 rmoveto
          204 359 rlineto
          10 -226 vlineto
          -60 -369 rlineto
          -83 -1159 179 callsubr
        </CharString>
        <CharString name="amacron">
          1117 223 -107 callgsubr
          155 -1404 -95 callsubr
        </CharString>
        <CharString name="ampersand">
          1606 514 -25 rmoveto
          191 143 88 166 146 hvcurveto
          239 -229 rlineto
          358 64 hlineto
          -77 24 -68 50 -180 171 rrcurveto
          -120 114 135 182 133 177 51 33 107 13 rlinecurve
          69 -451 -69 vlineto
          147 -22 21 -43 -99 -148 rrcurveto
          -94 -143 -335 321 -12 11 -11 11 -11 10 rlinecurve
          216 90 111 111 146 vvcurveto
          174 -146 126 -241 -246 -165 -151 -188 -122 52 -99 127 -140 vhcurveto
          -238 -89 -114 -137 -177 vvcurveto
          -235 -1 183 -159 249 hhcurveto
          -33 1224 rmoveto
          109 74 69 112 117 70 -93 -126 vhcurveto
          -1 -123 -56 -92 -118 -71 rrcurveto
          -146 146 -52 81 100 vvcurveto
          -169 -729 rmoveto
          110 55 82 114 62 vhcurveto
          30 -31 33 -33 37 -35 369 -354 rcurveline
          -105 -96 -94 -46 -104 hhcurveto
          -186 -158 141 209 hvcurveto
          endchar
        </CharString>
        <CharString name="anoteleiagreek">
          536 268 724 rmoveto
          81 67 68 -26 callgsubr
          67 -68 81 hvcurveto
          endchar
        </CharString>
        <CharString name="aogonek">
          1116 378 -21 rmoveto
          153 124 67 86 53 hvcurveto
          -93 22 83 -53 107 hhcurveto
          8 9 0 1 8 hvcurveto
          -181 -108 -67 -93 -99 vvcurveto
          -107 90 -66 109 88 78 34 51 38 vhcurveto
          68 vlineto
          -18 -18 -34 -11 -40 hhcurveto
          -55 -48 37 74 89 52 81 138 114 hvcurveto
          63 vlineto
          -5 -13 -18 -2 -19 hhcurveto
          -59 -46 33 87 hvcurveto
          485 vlineto
          224 -154 100 -245 -242 -181 -101 -137 -69 55 -49 70 71 54 50 67 49 -28 41 -40 18 vhcurveto
          22 44 56 12 60 hhcurveto
          146 95 -64 -180 hvcurveto
          -85 vlineto
          -221 -48 rlineto
          -284 -61 -112 -97 -157 vvcurveto
          -147 123 -103 171 vhcurveto
          -51 291 rmoveto
          109 67 64 190 43 vhcurveto
          117 25 rlineto
          -315 vlineto
          -61 -40 -70 -35 -86 hhcurveto
          -102 -76 62 108 hvcurveto
          endchar
        </CharString>
        <CharString name="approxequal">
          1191 853 756 rmoveto
          39 callgsubr
          167 3 61 64 91 114 callgsubr
          248 hvcurveto
          -115 hlineto
          -167 -3 -61 -64 -92 hhcurveto
          -477 vmoveto
          39 callgsubr
          167 3 61 64 91 114 callgsubr
          247 hvcurveto
          -115 hlineto
          -166 -3 -61 -64 -92 hhcurveto
          endchar
        </CharString>
        <CharString name="aring">
          1117 247 -40 callgsubr
          153 123 -87 callgsubr
          -154 -46 callgsubr
          44 53 62 61 45 -53 -77 -79 -45 -52 -61 -62 -44 52 78 vhcurveto
          -39 -1348 -95 callsubr
        </CharString>
        <CharString name="aringacute">
          1117 800 1503 -31 callgsubr
          98 callgsubr
          -72 hlineto
          -127 -85 -55 -82 -83 85 -54 127 hvcurveto
          63 72 rmoveto
          -54 hlineto
          -44 -25 27 38 38 25 27 44 hvcurveto
          54 hlineto
          46 23 -27 -38 -38 -23 -27 -46 hvcurveto
          -171 -1190 -95 callsubr
        </CharString>
        <CharString name="aringbelow">
          1117 378 -21 46 callsubr
          -32 -566 36 callgsubr
          -154 -122 23 callgsubr
        </CharString>
        <CharString name="asciicircum">
          1191 564 1444 rmoveto
          -445 -588 87 -82 388 509 387 -509 92 82 -446 588 rlineto
          endchar
        </CharString>
        <CharString name="asciitilde">
          1191 853 528 rmoveto
          39 callgsubr
          168 3 61 63 91 114 callgsubr
          248 hvcurveto
          -115 hlineto
          -166 -3 -61 -65 -92 hhcurveto
          endchar
        </CharString>
        <CharString name="asterisk">
          775 371 1141 rmoveto
          33 hlineto
          57 209 rlineto
          74 24 -46 47 -51 hhcurveto
          -53 -44 -47 -74 23 hvcurveto
          93 -210 rmoveto
          16 -29 204 55 rlineto
          76 17 18 63 -26 44 -26 46 -65 15 -51 -58 rrcurveto
          -201 -182 rmoveto
          16 29 -146 153 rlineto
          -51 58 -65 -15 -26 -46 -26 -45 18 -63 76 -17 rrcurveto
          220 -87 rmoveto
          -16 30 -204 -56 rlineto
          -75 -16 -18 -64 25 -44 26 -46 65 -15 51 58 rrcurveto
          201 183 rmoveto
          -15 -30 145 -153 rlineto
          51 -58 65 15 26 46 27 45 -19 62 -75 17 rrcurveto
          -224 24 rmoveto
          -33 hlineto
          -56 -208 rlineto
          -74 -24 45 -48 52 hhcurveto
          52 45 48 74 -24 hvcurveto
          endchar
        </CharString>
        <CharString name="at">
          2002 573 371 rmoveto
          -204 81 -128 144 118 118 76 155 71 vhcurveto
          -1 -4 -21 -1 vvcurveto
          -142 -16 74 -90 172 hhcurveto
          296 278 264 416 433 -337 292 -486 -568 -418 -446 -557 -504 350 -329 442 172 179 44 75 93 hvcurveto
          2 69 rlineto
          -71 -128 -135 -23 -163 hhcurveto
          -401 -305 285 465 490 373 408 509 420 294 -239 -401 -368 -233 -197 -174 -73 -34 36 108 23 hvcurveto
          150 702 -114 0 -109 -117 rlineto
          83 -31 -69 57 -111 hhcurveto
          -263 -187 -314 -305 hvcurveto
          220 -9 rmoveto
          240 111 298 170 76 46 -58 -87 4 vhcurveto
          -68 -323 rlineto
          -141 -30 -100 -129 -102 hhcurveto
          -74 -33 81 119 hvcurveto
          endchar
        </CharString>
        <CharString name="atilde">
          1117 646 23 callsubr
          175 callsubr
          -59 hhcurveto
          -100 -79 -99 callgsubr
          -268 -1208 -95 callsubr
        </CharString>
        <CharString name="austral">
          1435 217 281 rmoveto
          -61 -170 -28 -27 -120 -16 rrcurveto
          -68 438 68 vlineto
          -152 21 -21 30 54 158 rrcurveto
          36 107 570 0 39 -115 51 -148 -21 -33 -149 -20 rlinecurve
          -68 580 68 vlineto
          -113 15 -33 28 -57 157 -41 116 rcurveline
          244 63 -267 hlineto
          -78 217 rlineto
          345 63 -368 hlineto
          -258 719 -170 0 -259 -719 rlineto
          -370 -63 347 hlineto
          -78 -217 rlineto
          -269 -63 246 hlineto
          225 343 rmoveto
          168 497 169 -497 rlineto
          -432 -280 rmoveto
          73 217 381 0 74 -217 rlineto
          endchar
        </CharString>
        <CharString name="austral.tnum">
          1192 -3 446 rmoveto
          -64 201 vlineto
          -31 -103 -49 -170 -20 -29 -101 -12 rlinecurve
          -68 361 68 vlineto
          -121 15 -15 24 47 170 rrcurveto
          29 105 445 0 30 -112 44 -161 -14 -26 -123 -15 rlinecurve
          -68 515 68 vlineto
          -98 12 -20 28 -48 163 -33 111 rcurveline
          200 64 -218 hlineto
          -63 216 rlineto
          281 63 -300 hlineto
          -210 721 -178 0 -210 -721 rlineto
          -301 -63 282 hlineto
          -63 -216 rlineto
          176 279 rmoveto
          129 469 128 -469 rlineto
          -334 -279 rmoveto
          60 216 291 0 59 -216 rlineto
          endchar
        </CharString>
        <CharString name="b">
          -96 callgsubr
          106 callsubr
          endchar
        </CharString>
        <CharString name="backslash">
          685 517 -280 rmoveto
          149 hlineto
          -498 1860 rlineto
          -149 hlineto
          endchar
        </CharString>
        <CharString name="baht">
          1349 77 30 rmoveto
          584 -219 64 221 hlineto
          297 16 230 133 249 56 callgsubr
          192 -159 116 -295 14 vhcurveto
          219 -64 -218 -584 -68 vlineto
          115 callgsubr
          403 1237 rmoveto
          116 -4 23 -1 22 -2 20 -2 rlinecurve
          -528 vlineto
          -9 -9 -1 -9 hhcurveto
          -154 hlineto
          448 264 rmoveto
          -145 -73 -85 -130 -25 vhcurveto
          508 vlineto
          143 -36 60 -91 -126 vvcurveto
          -448 -344 rmoveto
          154 -1 rlineto
          9 9 0 9 hhcurveto
          -598 vlineto
          -21 -2 -22 -2 -22 -1 -116 -4 rcurveline
          512 309 rmoveto
          -161 -98 -95 -169 -34 vhcurveto
          582 vlineto
          173 -27 94 -103 -162 vvcurveto
          endchar
        </CharString>
        <CharString name="baht.tnum">
          1192 51 33 rmoveto
          542 -222 64 223 hlineto
          275 15 226 136 238 55 callgsubr
          177 -143 113 -284 12 vhcurveto
          223 -64 -222 -542 -69 vlineto
          90 callgsubr
          386 1232 rmoveto
          112 -3 rlineto
          15 15 -1 -2 14 hvcurveto
          -531 vlineto
          -1 -9 -9 0 -9 hhcurveto
          -129 hlineto
          405 276 rmoveto
          -138 -65 -96 -120 -31 vhcurveto
          509 vlineto
          121 -33 64 -86 -125 vvcurveto
          -405 -353 rmoveto
          129 -1 rlineto
          9 9 0 -1 9 hvcurveto
          -601 vlineto
          -2 -14 -15 -1 -15 hhcurveto
          -112 -3 rlineto
          470 306 rmoveto
          -162 -102 -96 -148 -32 vhcurveto
          584 vlineto
          159 -28 91 -104 -162 vvcurveto
          endchar
        </CharString>
        <CharString name="bar">
          685 268 -280 rmoveto
          149 1860 -149 hlineto
          endchar
        </CharString>
        <CharString name="bdotaccent">
          1230 284 1641 -63 callgsubr
          856 -1131 rmoveto
          106 callsubr
          endchar
        </CharString>
        <CharString name="bdotbelow">
          -96 callgsubr
          106 callsubr
          -258 -900 -96 callsubr
          -88 callsubr
        </CharString>
        <CharString name="becyrillic">
          1248 1157 497 rmoveto
          304 -202 191 -304 -213 -156 -119 -168 -72 vhcurveto
          -2 25 -1 27 27 vvcurveto
          216 94 170 311 33 vhcurveto
          125 13 282 30 85 71 15 195 rlinecurve
          -69 hlineto
          -17 -51 -51 -14 -221 -25 -219 -24 -133 -60 -110 -104 rrcurveto
          -131 -127 -71 -202 -316 vvcurveto
          -364 185 -246 335 290 250 201 317 vhcurveto
          -259 -15 rmoveto
          -251 -91 -159 -176 -168 -99 174 245 246 90 163 177 164 103 -170 -248 vhcurveto
          endchar
        </CharString>
        <CharString name="betagreek">
          1208 141 -460 rmoveto
          251 hlineto
          -4 206 -2 181 -3 160 rrcurveto
          -61 57 104 -49 125 hhcurveto
          227 225 150 283 259 -171 161 -227 27 hvcurveto
          161 20 161 114 183 vvcurveto
          203 -157 135 -275 -265 -205 -143 -380 vhcurveto
          232 102 rmoveto
          214 78 112 157 139 72 -107 -158 -172 -106 -100 -209 -1 vhcurveto
          -172 vlineto
          245 -5 134 -130 -209 vvcurveto
          -188 -117 -95 -151 -103 -86 39 60 -46 vhcurveto
          -6 492 -1 269 151 vvcurveto
          endchar
        </CharString>
        <CharString name="bitcoin">
          1343 77 30 rmoveto
          424 -219 64 219 93 hlineto
          44 42 2 5 41 hvcurveto
          -226 63 236 vlineto
          232 43 167 128 212 56 callgsubr
          162 -113 108 -213 38 vhcurveto
          233 -63 -224 vlineto
          4 -39 -43 2 -45 hhcurveto
          -93 218 -64 -218 -424 -68 hlineto
          115 callgsubr
          846 963 rmoveto
          -176 -108 -87 -186 -1 vhcurveto
          -149 538 hlineto
          111 -4 rlineto
          236 -8 96 -104 -158 vvcurveto
          64 -643 rmoveto
          -199 -150 -97 -246 -9 vhcurveto
          -111 -4 0 608 149 -1 rlineto
          230 128 -110 -188 hvcurveto
          endchar
        </CharString>
        <CharString name="bitcoin.tnum">
          1192 51 33 rmoveto
          385 -222 63 222 106 hlineto
          38 36 2 4 36 hvcurveto
          -228 63 239 vlineto
          217 43 163 128 202 55 callgsubr
          150 -102 103 -204 36 vhcurveto
          235 -63 -226 vlineto
          3 -34 -37 2 -39 hhcurveto
          -106 221 -63 -221 -385 -69 hlineto
          90 callgsubr
          789 970 rmoveto
          -169 -97 -106 -178 -1 vhcurveto
          -126 538 hlineto
          109 -3 rlineto
          190 -5 102 -96 -158 vvcurveto
          65 -658 rmoveto
          -197 -153 -99 -204 -5 vhcurveto
          -109 -3 0 609 126 -1 rlineto
          215 -1 125 -112 -191 vvcurveto
          endchar
        </CharString>
        <CharString name="blinebelow">
          -96 callgsubr
          106 callsubr
          -537 -846 -20 callsubr
        </CharString>
        <CharString name="braceleft">
          685 431 981 rmoveto
          260 vlineto
          153 29 117 169 vhcurveto
          69 -43 vlineto
          -239 -123 -129 -220 hvcurveto
          -332 vlineto
          -154 -86 -63 -113 vhcurveto
          -60 vlineto
          113 86 -64 -155 hvcurveto
          -333 vlineto
          -221 123 -129 239 vhcurveto
          43 69 hlineto
          -169 -29 117 154 hvcurveto
          262 vlineto
          198 -89 105 -188 27 vhcurveto
          189 26 88 105 198 vvcurveto
          endchar
        </CharString>
        <CharString name="braceright">
          685 253 981 rmoveto
          -198 89 -105 189 -26 vhcurveto
          -188 -27 -90 -105 -198 vvcurveto
          -262 vlineto
          -154 -28 -117 -169 vhcurveto
          -69 43 vlineto
          239 123 129 221 hvcurveto
          333 vlineto
          155 86 64 112 vhcurveto
          60 vlineto
          -112 -86 63 154 hvcurveto
          332 vlineto
          220 -123 129 -239 vhcurveto
          -43 -69 hlineto
          169 28 -117 -153 hvcurveto
          endchar
        </CharString>
        <CharString name="bracketleft">
          685 174 -282 rmoveto
          439 2 0 69 -228 4 0 1714 228 4 0 69 -439 2 rlineto
          endchar
        </CharString>
        <CharString name="bracketright">
          685 511 1582 rmoveto
          -439 -2 0 -69 228 -4 0 -1714 -228 -4 0 -69 439 -2 rlineto
          endchar
        </CharString>
        <CharString name="breve">
          1024 512 -58 callgsubr
          22 callgsubr
        </CharString>
        <CharString name="breveacutecmb">
          -86 callgsubr
          277 -292 rmoveto
          -3 callgsubr
        </CharString>
        <CharString name="breveacutecmb.short">
          0 284 79 callsubr
          284 -238 -1 callsubr
          -98 callgsubr
        </CharString>
        <CharString name="brevebelowcmb">
          0 -451 vmoveto
          7 callgsubr
        </CharString>
        <CharString name="brevecmb">
          0 1159 vmoveto
          196 107 142 148 20 -1 19 22 callgsubr
        </CharString>
        <CharString name="brevecmb.short">
          0 1142 vmoveto
          175 98 125 130 16 -2 17 -2 15 hvcurveto
          -72 -7 hlineto
          -89 -75 -67 -122 -122 -75 68 88 vhcurveto
          7 -72 vlineto
          -3 -15 -1 -17 -16 vvcurveto
          -130 98 -125 175 vhcurveto
          endchar
        </CharString>
        <CharString name="brevecyrilliccmb">
          0 1153 vmoveto
          -76 callgsubr
          -16 callgsubr
          endchar
        </CharString>
        <CharString name="brevecyrilliccmb.short">
          0 1589 vmoveto
          190 119 204 callsubr
          endchar
        </CharString>
        <CharString name="brevegravecmb">
          0 -277 -26 callsubr
          277 -536 rmoveto
          -3 callgsubr
        </CharString>
        <CharString name="brevegravecmb.short">
          0 -284 78 callsubr
          284 -446 -1 callsubr
          -98 callgsubr
        </CharString>
        <CharString name="brevehookabovecmb">
          0 -7 1638 rmoveto
          -76 -62 -31 -34 -35 hvcurveto
          -59 vlineto
          15 24 46 14 46 hhcurveto
          63 36 75 callgsubr
          -3 callgsubr
        </CharString>
        <CharString name="brevehookabovecmb.short">
          0 -7 1972 rmoveto
          -78 -64 -27 -28 -36 hvcurveto
          -51 vlineto
          13 26 46 13 48 hhcurveto
          63 -2 callgsubr
          -98 callgsubr
        </CharString>
        <CharString name="brevetildecmb">
          0 117 158 callsubr
          85 callsubr
          -12 rlineto
          -16 42 41 -11 46 hhcurveto
          -117 -317 rmoveto
          -3 callgsubr
        </CharString>
        <CharString name="brevetildecmb.short">
          0 120 1794 rmoveto
          95 70 54 113 -1 hvcurveto
          -76 hlineto
          -45 -1 -27 74 callgsubr
          73 callgsubr
          -9 47 hhcurveto
          -120 -264 -1 callsubr
          -98 callgsubr
        </CharString>
        <CharString name="brokenbar">
          685 268 789 rmoveto
          149 791 -149 hlineto
          -1860 vmoveto
          149 791 -149 hlineto
          endchar
        </CharString>
        <CharString name="bullet">
          754 377 374 rmoveto
          114 94 93 116 116 -94 93 -114 -114 -94 -93 -116 -116 94 -93 114 hvcurveto
          endchar
        </CharString>
        <CharString name="c">
          1036 593 -21 17 callsubr
        </CharString>
        <CharString name="cacute">
          1036 559 -91 callsubr
          -72 callsubr
          120 -1160 17 callsubr
        </CharString>
        <CharString name="caret">
          536 241 hmoveto
          -281 -357 71 -72 236 299 235 -299 74 71 -280 358 rlineto
          endchar
        </CharString>
        <CharString name="caron">
          1024 734 -38 callsubr
          24 callsubr
          endchar
        </CharString>
        <CharString name="caroncmb">
          0 222 -38 callsubr
          24 callsubr
          endchar
        </CharString>
        <CharString name="caroncmb.short">
          0 216 1397 rmoveto
          -205 -146 -202 146 -87 0 -44 callgsubr
          endchar
        </CharString>
        <CharString name="carondotaccentcmb">
          0 1393 vmoveto
          -94 callgsubr
          -84 callgsubr
          277 227 callsubr
          47 0 253 183 rlineto
          endchar
        </CharString>
        <CharString name="carondotaccentcmb.short">
          0 1778 83 callgsubr
          291 -19 rmoveto
          -291 -90 -290 90 0 -61 267 -155 49 0 266 155 rlineto
          endchar
        </CharString>
        <CharString name="caronslovak">
          1024 457 1097 145 callsubr
          endchar
        </CharString>
        <CharString name="caronslovakcmb">
          0 86 1097 145 callsubr
          endchar
        </CharString>
        <CharString name="ccaron">
          1036 824 -38 callsubr
          24 callsubr
          -317 -1537 17 callsubr
        </CharString>
        <CharString name="ccedilla">
          1036 559 -476 rmoveto
          -4 callsubr
          65 87 153 10 123 60 65 83 rlinecurve
          154 callsubr
          47 callgsubr
        </CharString>
        <CharString name="ccedillaacute">
          1036 559 -91 callsubr
          -72 callsubr
          86 -1615 rmoveto
          -4 callsubr
          65 87 153 10 123 60 65 83 rlinecurve
          154 callsubr
          47 callgsubr
        </CharString>
        <CharString name="ccircumflex">
          1036 380 131 callsubr
          299 -1160 17 callsubr
        </CharString>
        <CharString name="cdotaccent">
          1036 602 -24 callsubr
          -91 callgsubr
          -9 -1215 17 callsubr
        </CharString>
        <CharString name="cedi">
          1349 753 -189 rmoveto
          64 200 hlineto
          178 177 50 59 81 hvcurveto
          12 310 rlineto
          -64 hlineto
          -244 -59 -123 -80 -184 -6 -6 0 -6 hhcurveto
          1232 vlineto
          6 6 0 6 hhcurveto
          189 115 -94 -227 56 hvcurveto
          64 hlineto
          -12 310 -92 58 -138 47 -200 1 rlinecurve
          199 -64 -201 vlineto
          -377 -24 -269 -257 -423 vvcurveto
          -429 282 -258 364 -26 vhcurveto
          -382 732 rmoveto
          334 140 214 242 38 vhcurveto
          -1219 vlineto
          -235 46 -147 245 342 vvcurveto
          endchar
        </CharString>
        <CharString name="cedi.tnum">
          1192 673 -189 rmoveto
          64 201 hlineto
          154 2 147 42 78 47 12 305 rcurveline
          -64 hlineto
          -54 -227 -108 -77 -154 1 rrcurveto
          -4 -4 0 -3 hhcurveto
          1233 vlineto
          4 4 0 5 hhcurveto
          143 103 -87 -211 51 hvcurveto
          64 hlineto
          -12 306 -83 47 -117 38 -162 1 rlinecurve
          200 -64 -201 vlineto
          -339 -24 -247 -261 1 -419 rrcurveto
          -455 260 -237 325 -22 vhcurveto
          -323 733 rmoveto
          336 116 209 207 40 vhcurveto
          -1218 vlineto
          -205 43 -118 228 362 vvcurveto
          endchar
        </CharString>
        <CharString name="cedilla">
          1024 481 -67 callgsubr
          78 107 rlineto
          35 -60 vlineto
          -148 -194 -73 callgsubr
          -53 -54 16 22 -31 hvcurveto
          -67 vlineto
          -42 40 74 -28 91 hhcurveto
          endchar
        </CharString>
        <CharString name="cedillacmb">
          0 -31 110 callgsubr
          -3 -4 -1 -3 hhcurveto
          77 104 rlineto
          34 -60 vlineto
          -148 -190 -73 callgsubr
          229 callsubr
          endchar
        </CharString>
        <CharString name="cent">
          1052 633 201 callsubr
          55 53 72 137 -135 41 callgsubr
          -305 209 -197 112 callgsubr
          134 138 42 231 callsubr
        </CharString>
        <CharString name="cent.1">
          1034 629 hmoveto
          204 vlineto
          154 8 123 61 66 83 rrcurveto
          69 vlineto
          -55 -58 -94 -36 -100 hhcurveto
          -218 193 callsubr
        </CharString>
        <CharString name="cent.1.tnum">
          1192 673 hmoveto
          203 vlineto
          154 9 124 61 65 83 rrcurveto
          69 vlineto
          -55 -58 -95 -36 -98 hhcurveto
          -219 193 callsubr
        </CharString>
        <CharString name="cent.tnum">
          1192 668 201 callsubr
          54 53 72 137 -134 41 callgsubr
          -304 209 -198 112 callgsubr
          133 138 43 231 callsubr
        </CharString>
        <CharString name="checyrillic">
          1258 168 703 rmoveto
          -222 141 -103 196 121 113 33 41 67 vhcurveto
          -289 vlineto
          -70 -21 -15 -135 -10 vhcurveto
          -68 540 68 vlineto
          -121 10 -19 14 71 vvcurveto
          671 vlineto
          71 19 14 121 9 vhcurveto
          69 -513 -69 vlineto
          112 -8 17 -14 -69 vvcurveto
          -315 vlineto
          -19 -40 -83 -19 -72 hhcurveto
          -130 -70 65 159 hvcurveto
          129 vlineto
          69 17 14 109 8 vhcurveto
          69 -508 -69 vlineto
          120 -9 19 -14 -71 vvcurveto
          endchar
        </CharString>
        <CharString name="chigreek">
          1122 286 -460 rmoveto
          190 642 150 -343 rlineto
          -234 98 74 -81 137 hhcurveto
          79 63 34 44 41 hvcurveto
          67 vlineto
          -9 -14 -25 -9 -28 hhcurveto
          -68 -44 39 184 -83 hvcurveto
          -185 421 122 235 138 239 148 228 rlinecurve
          -258 hlineto
          -189 -615 -137 313 rlineto
          233 -98 -72 81 -138 hhcurveto
          -79 -63 -35 -43 -41 hvcurveto
          -68 vlineto
          10 14 26 8 27 hhcurveto
          69 46 -38 -184 81 hvcurveto
          171 -390 -133 -262 -137 -247 -140 -220 rlinecurve
          endchar
        </CharString>
        <CharString name="circumflex">
          1024 290 -67 callsubr
          81 callsubr
          endchar
        </CharString>
        <CharString name="circumflexacutecmb">
          -86 callgsubr
          -295 vmoveto
          -23 callsubr
          -83 callgsubr
        </CharString>
        <CharString name="circumflexacutecmb.short">
          0 284 123 callsubr
          endchar
        </CharString>
        <CharString name="circumflexbelowcmb">
          0 -207 -462 rmoveto
          207 177 204 132 callsubr
        </CharString>
        <CharString name="circumflexcmb">
          0 -222 -67 callsubr
          81 callsubr
          endchar
        </CharString>
        <CharString name="circumflexcmb.short">
          0 -193 1107 rmoveto
          205 146 -35 callsubr
          -155 0 -211 -283 rlineto
          endchar
        </CharString>
        <CharString name="circumflexgravecmb">
          0 -277 -26 callsubr
          -539 vmoveto
          -23 callsubr
          -83 callgsubr
        </CharString>
        <CharString name="circumflexgravecmb.short">
          0 -284 122 callsubr
          endchar
        </CharString>
        <CharString name="circumflexhookabovecmb">
          0 214 1638 rmoveto
          -75 -63 -31 -34 -35 hvcurveto
          -59 vlineto
          15 24 47 14 46 hhcurveto
          63 36 -25 -41 -40 -34 -26 -53 callgsubr
          -88 47 -97 vhcurveto
          -491 -525 rmoveto
          -23 callsubr
          -83 callgsubr
        </CharString>
        <CharString name="circumflexhookabovecmb.short">
          0 236 1927 rmoveto
          -74 -62 -28 -28 -34 hvcurveto
          -50 vlineto
          13 25 44 12 46 hhcurveto
          61 36 -22 -34 -34 -33 -23 -72 -17 hvcurveto
          59 -38 rlineto
          116 26 70 37 73 vvcurveto
          73 -87 40 -41 callgsubr
          endchar
        </CharString>
        <CharString name="circumflextildecmb">
          0 117 158 callsubr
          85 callsubr
          -12 rlineto
          -16 42 41 -11 46 hhcurveto
          -394 -320 rmoveto
          -23 callsubr
          -83 callgsubr
        </CharString>
        <CharString name="circumflextildecmb.short">
          0 120 1773 rmoveto
          95 70 55 112 -1 hvcurveto
          -76 hlineto
          -45 -1 -27 -42 callgsubr
          15 -44 -42 9 -47 hhcurveto
          -94 -71 -55 -113 1 hvcurveto
          77 hlineto
          45 27 19 43 27 27 -7 -12 39 vhcurveto
          64 callgsubr
          endchar
        </CharString>
        <CharString name="colon">
          536 268 671 -79 callgsubr
          -689 vmoveto
          81 67 67 82 84 -67 66 -81 -82 -66 -66 -84 -82 66 -67 82 hvcurveto
          endchar
        </CharString>
</ttFont>
